<svg xmlns="http://www.w3.org/2000/svg" viewBox="0 0 1000 480">
  <style>
    text { font-family: 'Segoe UI', Arial, sans-serif; }
    .title    { font-size: 15px; font-weight: 700; fill: #222; }
    .axis      { stroke: #888; stroke-width: 1; }
    .grid      { stroke: #eee; stroke-width: 1; }
    .tick-lbl  { font-size: 11px; fill: #555; }
    .axis-lbl  { font-size: 12px; fill: #555; }
    .qlabel    { font-size: 12px; font-weight: 600; fill: #333; }
    .val       { font-size: 9px; fill: #888; }
    .speedup   { font-size: 13px; font-weight: 700; fill: #27ae60; }
    .legend    { font-size: 12px; fill: #444; }
    .summary   { font-size: 12px; fill: #444; }
  </style>

  <text class="title" x="500" y="24" text-anchor="middle">topk_tpch (TPC-H SF1, ORDER BY … LIMIT 100) — main vs runtime row-group pruning</text>

  <!-- gridlines + y ticks (0..70 ms) -->
  <line class="grid" x1="70" y1="360" x2="970" y2="360"/>
  <line class="grid" x1="70" y1="310" x2="970" y2="310"/>
  <line class="grid" x1="70" y1="260" x2="970" y2="260"/>
  <line class="grid" x1="70" y1="210" x2="970" y2="210"/>
  <line class="grid" x1="70" y1="160" x2="970" y2="160"/>
  <line class="grid" x1="70" y1="110" x2="970" y2="110"/>
  <line class="grid" x1="70" y1="60"  x2="970" y2="60"/>
  <line class="axis" x1="70" y1="60" x2="70" y2="410"/>
  <line class="axis" x1="70" y1="410" x2="970" y2="410"/>
  <text class="tick-lbl" x="60" y="414" text-anchor="end">0</text>
  <text class="tick-lbl" x="60" y="364" text-anchor="end">10</text>
  <text class="tick-lbl" x="60" y="314" text-anchor="end">20</text>
  <text class="tick-lbl" x="60" y="264" text-anchor="end">30</text>
  <text class="tick-lbl" x="60" y="214" text-anchor="end">40</text>
  <text class="tick-lbl" x="60" y="164" text-anchor="end">50</text>
  <text class="tick-lbl" x="60" y="114" text-anchor="end">60</text>
  <text class="tick-lbl" x="60" y="64"  text-anchor="end">70</text>
  <text class="axis-lbl" x="24" y="235" text-anchor="middle" transform="rotate(-90 24 235)">Median time (ms, lower is better)</text>

  <!-- legend -->
  <rect x="120" y="72" width="14" height="14" fill="#95a5a6"/><text class="legend" x="140" y="83">main</text>
  <rect x="230" y="72" width="14" height="14" fill="#d5d9dc"/><text class="legend" x="250" y="83">this PR</text>
  <rect x="360" y="72" width="14" height="14" fill="#27ae60"/><text class="legend" x="380" y="83">this PR — ≥2× faster</text>

  <!-- ===== Q1 (2.6 / 2.5) ===== -->
  <rect x="81"  y="397" width="28" height="13"   fill="#95a5a6"/>
  <rect x="113" y="398" width="28" height="12"   fill="#d5d9dc"/>
  <text class="val" x="95" y="393" text-anchor="middle">2.6</text>
  <text class="qlabel" x="111" y="428" text-anchor="middle">Q1</text>

  <!-- ===== Q2 (11.3 / 3.59) 3.15x ===== -->
  <rect x="163" y="354" width="28" height="56"   fill="#95a5a6"/>
  <rect x="195" y="392" width="28" height="18"   fill="#27ae60"/>
  <text class="val" x="177" y="350" text-anchor="middle">11.3</text>
  <rect x="165" y="312" width="56" height="24" rx="5" fill="#fff" stroke="#27ae60" stroke-width="1.5"/>
  <text class="speedup" x="193" y="329" text-anchor="middle">3.15×</text>
  <text class="qlabel" x="193" y="428" text-anchor="middle">Q2</text>

  <!-- ===== Q3 (32.1 / 31.9) ===== -->
  <rect x="245" y="250" width="28" height="160"  fill="#95a5a6"/>
  <rect x="277" y="251" width="28" height="159"  fill="#d5d9dc"/>
  <text class="val" x="259" y="246" text-anchor="middle">32.1</text>
  <text class="qlabel" x="275" y="428" text-anchor="middle">Q3</text>

  <!-- ===== Q4 (12.2 / 3.23) 3.78x ===== -->
  <rect x="326" y="349" width="28" height="61"   fill="#95a5a6"/>
  <rect x="358" y="394" width="28" height="16"   fill="#27ae60"/>
  <text class="val" x="340" y="345" text-anchor="middle">12.2</text>
  <rect x="328" y="307" width="56" height="24" rx="5" fill="#fff" stroke="#27ae60" stroke-width="1.5"/>
  <text class="speedup" x="356" y="324" text-anchor="middle">3.78×</text>
  <text class="qlabel" x="356" y="428" text-anchor="middle">Q4</text>

  <!-- ===== Q5 (10.1 / 9.9) ===== -->
  <rect x="408" y="360" width="28" height="50"   fill="#95a5a6"/>
  <rect x="440" y="361" width="28" height="49"   fill="#d5d9dc"/>
  <text class="val" x="422" y="356" text-anchor="middle">10.1</text>
  <text class="qlabel" x="438" y="428" text-anchor="middle">Q5</text>

  <!-- ===== Q6 (17.9 / 17.7) ===== -->
  <rect x="490" y="321" width="28" height="89"   fill="#95a5a6"/>
  <rect x="522" y="322" width="28" height="88"   fill="#d5d9dc"/>
  <text class="val" x="504" y="317" text-anchor="middle">17.9</text>
  <text class="qlabel" x="520" y="428" text-anchor="middle">Q6</text>

  <!-- ===== Q7 (38.1 / 37.8) ===== -->
  <rect x="572" y="220" width="28" height="190"  fill="#95a5a6"/>
  <rect x="604" y="221" width="28" height="189"  fill="#d5d9dc"/>
  <text class="val" x="586" y="216" text-anchor="middle">38.1</text>
  <text class="qlabel" x="602" y="428" text-anchor="middle">Q7</text>

  <!-- ===== Q8 (28.6 / 7.17) 3.99x ===== -->
  <rect x="654" y="267" width="28" height="143"  fill="#95a5a6"/>
  <rect x="686" y="374" width="28" height="36"   fill="#27ae60"/>
  <text class="val" x="668" y="263" text-anchor="middle">28.6</text>
  <rect x="656" y="225" width="56" height="24" rx="5" fill="#fff" stroke="#27ae60" stroke-width="1.5"/>
  <text class="speedup" x="684" y="242" text-anchor="middle">3.99×</text>
  <text class="qlabel" x="684" y="428" text-anchor="middle">Q8</text>

  <!-- ===== Q9 (36.9 / 8.50) 4.34x ===== -->
  <rect x="735" y="226" width="28" height="184"  fill="#95a5a6"/>
  <rect x="767" y="368" width="28" height="42"   fill="#27ae60"/>
  <text class="val" x="749" y="222" text-anchor="middle">36.9</text>
  <rect x="737" y="184" width="56" height="24" rx="5" fill="#fff" stroke="#27ae60" stroke-width="1.5"/>
  <text class="speedup" x="765" y="201" text-anchor="middle">4.34×</text>
  <text class="qlabel" x="765" y="428" text-anchor="middle">Q9</text>

  <!-- ===== Q10 (55.3 / 13.01) 4.25x ===== -->
  <rect x="817" y="134" width="28" height="276"  fill="#95a5a6"/>
  <rect x="849" y="345" width="28" height="65"   fill="#27ae60"/>
  <text class="val" x="831" y="130" text-anchor="middle">55.3</text>
  <rect x="819" y="92" width="56" height="24" rx="5" fill="#fff" stroke="#27ae60" stroke-width="1.5"/>
  <text class="speedup" x="847" y="109" text-anchor="middle">4.25×</text>
  <text class="qlabel" x="847" y="428" text-anchor="middle">Q10</text>

  <!-- ===== Q11 (3.7 / 3.6) ===== -->
  <rect x="899" y="392" width="28" height="18"   fill="#95a5a6"/>
  <rect x="931" y="392" width="28" height="18"   fill="#d5d9dc"/>
  <text class="val" x="913" y="388" text-anchor="middle">3.7</text>
  <text class="qlabel" x="929" y="428" text-anchor="middle">Q11</text>

  <!-- summary -->
  <text class="summary" x="500" y="458" text-anchor="middle">5 of 11 queries 3–4× faster · 0 regressions · total 248.8 → 139.1 ms (−44%)</text>
</svg>
