<svg xmlns="http://www.w3.org/2000/svg" viewBox="0 0 820 380">
  <style>
    text { font-family: 'Segoe UI', Arial, sans-serif; }
    .title { font-size: 14px; font-weight: 700; fill: #222; }
    .axis-label { font-size: 11px; fill: #555; }
    .qlabel { font-size: 12px; font-weight: 600; fill: #222; }
    .qdesc { font-size: 10px; fill: #777; font-family: 'Courier New', monospace; }
    .bartext-light { font-size: 10px; fill: #333; }
    .bartext-on { font-size: 10px; font-weight: 700; fill: #fff; }
    .speedup { font-size: 13px; font-weight: 700; fill: #27ae60; }
    .legend { font-size: 11px; fill: #444; }
  </style>

  <text class="title" x="410" y="22" text-anchor="middle">sort_pushdown benchmark (single partition, release, reversed-name data)</text>

  <!-- y-axis line + ticks (log-ish scale via manual placement) -->
  <line x1="160" y1="60" x2="160" y2="320" stroke="#888" stroke-width="1"/>
  <text class="axis-label" x="155" y="65" text-anchor="end">700ms</text>
  <line x1="155" y1="62" x2="160" y2="62" stroke="#888"/>
  <text class="axis-label" x="155" y="135" text-anchor="end">259ms</text>
  <line x1="155" y1="132" x2="160" y2="132" stroke="#888"/>
  <text class="axis-label" x="155" y="200" text-anchor="end">80ms</text>
  <line x1="155" y1="197" x2="160" y2="197" stroke="#888"/>
  <text class="axis-label" x="155" y="260" text-anchor="end">7ms</text>
  <line x1="155" y1="257" x2="160" y2="257" stroke="#888"/>
  <text class="axis-label" x="155" y="320" text-anchor="end">0</text>

  <!-- bars per query: HEAD (gray) and PR (green), side-by-side -->
  <!-- Q1: 259 -> 122, full ORDER BY -->
  <text class="qlabel" x="225" y="345" text-anchor="middle">Q1</text>
  <text class="qdesc" x="225" y="358" text-anchor="middle">ORDER BY full</text>
  <rect x="180" y="135" width="40" height="185" fill="#bdc3c7"/>
  <text class="bartext-on" x="200" y="155" text-anchor="middle">259</text>
  <rect x="230" y="222" width="40" height="98" fill="#27ae60"/>
  <text class="bartext-on" x="250" y="242" text-anchor="middle">122</text>
  <text class="speedup" x="225" y="120" text-anchor="middle">2.1×</text>

  <!-- Q2: 80 -> 3, ORDER BY LIMIT -->
  <text class="qlabel" x="345" y="345" text-anchor="middle">Q2</text>
  <text class="qdesc" x="345" y="358" text-anchor="middle">ORDER BY LIMIT</text>
  <rect x="300" y="199" width="40" height="121" fill="#bdc3c7"/>
  <text class="bartext-on" x="320" y="219" text-anchor="middle">80</text>
  <rect x="350" y="313" width="40" height="7" fill="#27ae60"/>
  <text class="bartext-light" x="370" y="313" text-anchor="start">3</text>
  <text class="speedup" x="345" y="186" text-anchor="middle">27×</text>

  <!-- Q3: 700 -> 313, SELECT * ORDER BY -->
  <text class="qlabel" x="465" y="345" text-anchor="middle">Q3</text>
  <text class="qdesc" x="465" y="358" text-anchor="middle">SELECT * ORDER BY</text>
  <rect x="420" y="62" width="40" height="258" fill="#bdc3c7"/>
  <text class="bartext-on" x="440" y="82" text-anchor="middle">700</text>
  <rect x="470" y="174" width="40" height="146" fill="#27ae60"/>
  <text class="bartext-on" x="490" y="194" text-anchor="middle">313</text>
  <text class="speedup" x="465" y="50" text-anchor="middle">2.2×</text>

  <!-- Q4: 342 -> 7, SELECT * LIMIT -->
  <text class="qlabel" x="585" y="345" text-anchor="middle">Q4</text>
  <text class="qdesc" x="585" y="358" text-anchor="middle">SELECT * ORDER BY LIMIT</text>
  <rect x="540" y="98" width="40" height="222" fill="#bdc3c7"/>
  <text class="bartext-on" x="560" y="118" text-anchor="middle">342</text>
  <rect x="590" y="313" width="40" height="7" fill="#27ae60"/>
  <text class="bartext-light" x="610" y="313" text-anchor="start">7</text>
  <text class="speedup" x="585" y="85" text-anchor="middle">49×</text>

  <!-- y-axis label -->
  <text class="axis-label" x="78" y="190" text-anchor="middle" transform="rotate(-90 78 190)">latency (ms)</text>

  <!-- legend -->
  <rect x="660" y="80" width="14" height="14" fill="#bdc3c7"/>
  <text class="legend" x="680" y="92">main (before)</text>
  <rect x="660" y="105" width="14" height="14" fill="#27ae60"/>
  <text class="legend" x="680" y="117">sort pushdown phase 2</text>
  <text class="legend" x="660" y="145" fill="#777">Lower is better</text>
  <text class="legend" x="660" y="160" fill="#777">--partitions 1, release</text>
</svg>
