<svg xmlns="http://www.w3.org/2000/svg" viewBox="0 0 920 380">
  <style>
    text { font-family: 'Segoe UI', Arial, sans-serif; }
    .title { font-size: 14px; font-weight: 700; fill: #222; }
    .panel { font-size: 14px; font-weight: 700; fill: #1d1d1f; }
    .panel-buf { font-size: 13px; font-weight: 800; fill: #5b8def; }
    .panel-spm { font-size: 14px; font-weight: 800; fill: #27ae60; }
    .lbl { font-size: 12px; fill: #555; }
    .lbl-poll { font-size: 11px; fill: #c0392b; font-style: italic; }
    .small { font-size: 11px; fill: #666; font-family: 'Courier New', monospace; }
    .arr { fill: none; stroke: #555; stroke-width: 1.4; marker-end: url(#arr); }
    .arr-bg { fill: none; stroke: #c0392b; stroke-width: 1.2; stroke-dasharray: 3,3; marker-end: url(#arr-r); }
  </style>
  <defs>
    <marker id="arr" viewBox="0 0 10 10" refX="9" refY="5" markerWidth="6" markerHeight="6" orient="auto">
      <path d="M0,0 L10,5 L0,10 Z" fill="#555"/>
    </marker>
    <marker id="arr-r" viewBox="0 0 10 10" refX="9" refY="5" markerWidth="6" markerHeight="6" orient="auto">
      <path d="M0,0 L10,5 L0,10 Z" fill="#c0392b"/>
    </marker>
  </defs>

  <text class="title" x="460" y="26" text-anchor="middle">BufferExec — per-partition bounded queues</text>

  <!-- ============ LEFT: Upstream box ============ -->
  <rect x="30" y="60" width="120" height="280" rx="8" fill="#fafafa" stroke="#bbb" stroke-width="1"/>
  <text class="panel" x="90" y="92" text-anchor="middle">DataSource</text>
  <text class="lbl" x="90" y="112" text-anchor="middle">(I/O bound)</text>

  <!-- ============ MIDDLE: BufferExec ============ -->
  <rect x="200" y="60" width="500" height="280" rx="8" fill="#fff" stroke="#5b8def" stroke-width="2"/>
  <text class="panel-buf" x="450" y="84" text-anchor="middle">BufferExec</text>
  <text class="small" x="450" y="100" text-anchor="middle">capacity: sort_pushdown_buffer_capacity · default 1 GB</text>

  <!-- Partition 0 -->
  <rect x="220" y="118" width="460" height="48" rx="6" fill="#f5f5f7" stroke="#bbb"/>
  <text class="lbl" x="234" y="139">Partition 0</text>
  <rect x="400" y="129" width="22" height="28" fill="#5b8def"/>
  <rect x="426" y="129" width="22" height="28" fill="#5b8def"/>
  <rect x="452" y="129" width="22" height="28" fill="#5b8def"/>
  <rect x="478" y="129" width="22" height="28" fill="none" stroke="#bbb" stroke-dasharray="2,2"/>
  <rect x="504" y="129" width="22" height="28" fill="none" stroke="#bbb" stroke-dasharray="2,2"/>
  <text class="small" x="660" y="146" text-anchor="end">bounded queue</text>

  <!-- Partition 1 -->
  <rect x="220" y="178" width="460" height="48" rx="6" fill="#f5f5f7" stroke="#bbb"/>
  <text class="lbl" x="234" y="199">Partition 1</text>
  <rect x="400" y="189" width="22" height="28" fill="#5b8def"/>
  <rect x="426" y="189" width="22" height="28" fill="#5b8def"/>
  <rect x="452" y="189" width="22" height="28" fill="none" stroke="#bbb" stroke-dasharray="2,2"/>
  <rect x="478" y="189" width="22" height="28" fill="none" stroke="#bbb" stroke-dasharray="2,2"/>
  <rect x="504" y="189" width="22" height="28" fill="none" stroke="#bbb" stroke-dasharray="2,2"/>

  <!-- ... -->
  <text class="lbl" x="450" y="252" text-anchor="middle">…</text>

  <!-- Partition N -->
  <rect x="220" y="272" width="460" height="48" rx="6" fill="#f5f5f7" stroke="#bbb"/>
  <text class="lbl" x="234" y="293">Partition N</text>
  <rect x="400" y="283" width="22" height="28" fill="#5b8def"/>
  <rect x="426" y="283" width="22" height="28" fill="none" stroke="#bbb" stroke-dasharray="2,2"/>
  <rect x="452" y="283" width="22" height="28" fill="none" stroke="#bbb" stroke-dasharray="2,2"/>
  <rect x="478" y="283" width="22" height="28" fill="none" stroke="#bbb" stroke-dasharray="2,2"/>
  <rect x="504" y="283" width="22" height="28" fill="none" stroke="#bbb" stroke-dasharray="2,2"/>

  <!-- Background poll arrows from upstream -->
  <line class="arr-bg" x1="150" y1="142" x2="398" y2="142"/>
  <line class="arr-bg" x1="150" y1="202" x2="398" y2="202"/>
  <line class="arr-bg" x1="150" y1="296" x2="398" y2="296"/>

  <!-- Drain arrows to SPM -->
  <line class="arr" x1="680" y1="142" x2="750" y2="142"/>
  <line class="arr" x1="680" y1="202" x2="750" y2="202"/>
  <line class="arr" x1="680" y1="296" x2="750" y2="296"/>

  <!-- ============ RIGHT: SPM box ============ -->
  <rect x="750" y="60" width="140" height="280" rx="8" fill="#fff" stroke="#27ae60" stroke-width="2"/>
  <text class="panel-spm" x="820" y="92" text-anchor="middle">SPM</text>
  <text class="lbl" x="820" y="112" text-anchor="middle">k-way merge</text>

  <!-- Legend -->
  <rect x="20" y="350" width="880" height="26" rx="4" fill="#fafafa" stroke="#eee"/>
  <line class="arr-bg" x1="40" y1="363" x2="80" y2="363"/>
  <text class="lbl-poll" x="86" y="367">background prefill</text>
  <line class="arr" x1="280" y1="363" x2="320" y2="363"/>
  <text class="lbl" x="326" y="367">consumer drains on demand (no I/O stall)</text>
  <rect x="650" y="356" width="14" height="14" fill="#5b8def"/>
  <text class="lbl" x="670" y="367">buffered batch</text>
</svg>
