<svg xmlns="http://www.w3.org/2000/svg" viewBox="0 0 820 360">
  <style>
    text { font-family: 'Segoe UI', Arial, sans-serif; }
    .title { font-size: 14px; font-weight: 700; fill: #222; }
    .panel-title { font-size: 13px; font-weight: 700; }
    .label { font-size: 11px; fill: #555; }
    .range { font-size: 11px; fill: #333; font-family: 'Courier New', monospace; }
    .verdict-good { font-size: 12px; font-weight: 700; fill: #27ae60; }
    .verdict-bad { font-size: 12px; font-weight: 700; fill: #c0392b; }
    .axis { stroke: #888; stroke-width: 1; }
    .tick { stroke: #888; stroke-width: 1; }
  </style>

  <text class="title" x="410" y="22" text-anchor="middle">Phase 2: use min/max statistics to prove non-overlap</text>

  <!-- LEFT: Non-overlapping (Exact) -->
  <rect x="20" y="40" width="380" height="280" rx="8" fill="#e8f5e9" stroke="#27ae60" stroke-width="1.5"/>
  <text class="panel-title" x="210" y="62" text-anchor="middle" fill="#27ae60">Non-overlapping ranges</text>

  <!-- axis -->
  <line class="axis" x1="50" y1="240" x2="380" y2="240"/>
  <line class="tick" x1="50" y1="235" x2="50" y2="245"/>
  <line class="tick" x1="160" y1="235" x2="160" y2="245"/>
  <line class="tick" x1="270" y1="235" x2="270" y2="245"/>
  <line class="tick" x1="380" y1="235" x2="380" y2="245"/>
  <text class="range" x="50" y="258" text-anchor="middle">0</text>
  <text class="range" x="160" y="258" text-anchor="middle">100</text>
  <text class="range" x="270" y="258" text-anchor="middle">200</text>
  <text class="range" x="380" y="258" text-anchor="middle">300</text>
  <text class="label" x="215" y="278" text-anchor="middle">min(ts) / max(ts)</text>

  <!-- file ranges -->
  <rect x="50" y="100" width="110" height="22" rx="3" fill="#27ae60"/>
  <text class="range" x="105" y="115" text-anchor="middle" fill="#fff">file_c  [0..100]</text>
  <rect x="160" y="140" width="110" height="22" rx="3" fill="#27ae60"/>
  <text class="range" x="215" y="155" text-anchor="middle" fill="#fff">file_b  [100..200]</text>
  <rect x="270" y="180" width="110" height="22" rx="3" fill="#27ae60"/>
  <text class="range" x="325" y="195" text-anchor="middle" fill="#fff">file_a  [200..300]</text>

  <!-- gap markers -->
  <line x1="160" y1="92" x2="160" y2="210" stroke="#27ae60" stroke-dasharray="3,3" stroke-width="1"/>
  <line x1="270" y1="132" x2="270" y2="210" stroke="#27ae60" stroke-dasharray="3,3" stroke-width="1"/>

  <text class="verdict-good" x="210" y="305" text-anchor="middle">Ordering: Exact ✓</text>
  <text class="label" x="210" y="320" text-anchor="middle">SortExec can be removed</text>

  <!-- RIGHT: Overlapping (Inexact) -->
  <rect x="420" y="40" width="380" height="280" rx="8" fill="#fde8e8" stroke="#c0392b" stroke-width="1.5"/>
  <text class="panel-title" x="610" y="62" text-anchor="middle" fill="#c0392b">Overlapping ranges</text>

  <line class="axis" x1="450" y1="240" x2="780" y2="240"/>
  <line class="tick" x1="450" y1="235" x2="450" y2="245"/>
  <line class="tick" x1="560" y1="235" x2="560" y2="245"/>
  <line class="tick" x1="670" y1="235" x2="670" y2="245"/>
  <line class="tick" x1="780" y1="235" x2="780" y2="245"/>
  <text class="range" x="450" y="258" text-anchor="middle">0</text>
  <text class="range" x="560" y="258" text-anchor="middle">100</text>
  <text class="range" x="670" y="258" text-anchor="middle">200</text>
  <text class="range" x="780" y="258" text-anchor="middle">300</text>
  <text class="label" x="615" y="278" text-anchor="middle">min(ts) / max(ts)</text>

  <!-- overlapping file bars -->
  <rect x="450" y="100" width="200" height="22" rx="3" fill="#c0392b" opacity="0.85"/>
  <text class="range" x="550" y="115" text-anchor="middle" fill="#fff">file_x  [0..180]</text>
  <rect x="540" y="140" width="200" height="22" rx="3" fill="#c0392b" opacity="0.85"/>
  <text class="range" x="640" y="155" text-anchor="middle" fill="#fff">file_y  [80..260]</text>
  <rect x="620" y="180" width="160" height="22" rx="3" fill="#c0392b" opacity="0.85"/>
  <text class="range" x="700" y="195" text-anchor="middle" fill="#fff">file_z  [140..300]</text>

  <!-- overlap shading -->
  <rect x="540" y="100" width="110" height="22" fill="#c0392b" opacity="0.25"/>
  <rect x="620" y="140" width="120" height="22" fill="#c0392b" opacity="0.25"/>

  <text class="verdict-bad" x="610" y="305" text-anchor="middle">Ordering: Inexact (or stripped)</text>
  <text class="label" x="610" y="320" text-anchor="middle">SortExec stays</text>

  <!-- footer -->
  <text x="410" y="348" text-anchor="middle" font-size="11" fill="#555">PushdownSort sorts files by min, checks adjacency, upgrades to Exact only when ranges don't overlap.</text>
</svg>
