<svg xmlns="http://www.w3.org/2000/svg" viewBox="0 0 1000 440">
  <style>
    text { font-family: 'Segoe UI', Arial, sans-serif; }
    .title { font-size: 20px; font-weight: 800; fill: #222; }
    .panel-title { font-size: 18px; font-weight: 800; }
    .label { font-size: 14px; fill: #555; }
    .axis-num { font-size: 14px; fill: #333; font-family: 'Courier New', monospace; }
    .file-label { font-size: 15px; fill: #1d1d1f; font-family: 'Courier New', monospace; font-weight: 700; }
    .verdict-good { font-size: 18px; font-weight: 800; fill: #27ae60; }
    .verdict-bad { font-size: 18px; font-weight: 800; fill: #c0392b; }
    .verdict-sub { font-size: 14px; fill: #555; }
    .axis { stroke: #888; stroke-width: 1.4; }
    .tick { stroke: #888; stroke-width: 1.4; }
    .gap { stroke: #27ae60; stroke-dasharray: 4,4; stroke-width: 1.4; }
    .footer { font-size: 14px; fill: #555; font-style: italic; }
  </style>

  <text class="title" x="500" y="32" text-anchor="middle">Using min/max statistics to prove non-overlap</text>

  <!-- ============ LEFT: Non-overlapping (Exact) ============ -->
  <rect x="30" y="55" width="460" height="370" rx="10" fill="#e8f5e9" stroke="#27ae60" stroke-width="2"/>
  <text class="panel-title" x="260" y="84" text-anchor="middle" fill="#27ae60">Non-overlapping ranges</text>

  <!-- file_c -->
  <text class="file-label" x="135" y="112" text-anchor="middle">file_c  [0..100]</text>
  <rect x="70"  y="120" width="130" height="28" rx="4" fill="#27ae60"/>

  <!-- file_b -->
  <text class="file-label" x="265" y="172" text-anchor="middle">file_b  [100..200]</text>
  <rect x="200" y="180" width="130" height="28" rx="4" fill="#27ae60"/>

  <!-- file_a -->
  <text class="file-label" x="395" y="232" text-anchor="middle">file_a  [200..300]</text>
  <rect x="330" y="240" width="130" height="28" rx="4" fill="#27ae60"/>

  <!-- axis -->
  <line class="axis" x1="70" y1="300" x2="460" y2="300"/>
  <line class="tick" x1="70"  y1="294" x2="70"  y2="306"/>
  <line class="tick" x1="200" y1="294" x2="200" y2="306"/>
  <line class="tick" x1="330" y1="294" x2="330" y2="306"/>
  <line class="tick" x1="460" y1="294" x2="460" y2="306"/>
  <text class="axis-num" x="70"  y="322" text-anchor="middle">0</text>
  <text class="axis-num" x="200" y="322" text-anchor="middle">100</text>
  <text class="axis-num" x="330" y="322" text-anchor="middle">200</text>
  <text class="axis-num" x="460" y="322" text-anchor="middle">300</text>
  <text class="label" x="265" y="344" text-anchor="middle">min(ts) / max(ts)</text>

  <!-- gap markers -->
  <line class="gap" x1="200" y1="112" x2="200" y2="298"/>
  <line class="gap" x1="330" y1="172" x2="330" y2="298"/>

  <text class="verdict-good" x="260" y="383" text-anchor="middle">Ordering: Exact ✓</text>
  <text class="verdict-sub"  x="260" y="406" text-anchor="middle">Sort can be removed</text>

  <!-- ============ RIGHT: Overlapping (Inexact) ============ -->
  <rect x="510" y="55" width="460" height="370" rx="10" fill="#fde8e8" stroke="#c0392b" stroke-width="2"/>
  <text class="panel-title" x="740" y="84" text-anchor="middle" fill="#c0392b">Overlapping ranges</text>

  <!-- file_x -->
  <text class="file-label" x="667" y="112" text-anchor="middle">file_x  [0..180]</text>
  <rect x="550" y="120" width="234" height="28" rx="4" fill="#c0392b" opacity="0.85"/>

  <!-- file_y -->
  <text class="file-label" x="771" y="172" text-anchor="middle">file_y  [80..260]</text>
  <rect x="654" y="180" width="234" height="28" rx="4" fill="#c0392b" opacity="0.85"/>

  <!-- file_z -->
  <text class="file-label" x="836" y="232" text-anchor="middle">file_z  [140..300]</text>
  <rect x="732" y="240" width="208" height="28" rx="4" fill="#c0392b" opacity="0.85"/>

  <!-- overlap shading -->
  <rect x="654" y="120" width="130" height="28" fill="#c0392b" opacity="0.30"/>
  <rect x="732" y="180" width="156" height="28" fill="#c0392b" opacity="0.30"/>

  <!-- axis -->
  <line class="axis" x1="550" y1="300" x2="940" y2="300"/>
  <line class="tick" x1="550" y1="294" x2="550" y2="306"/>
  <line class="tick" x1="680" y1="294" x2="680" y2="306"/>
  <line class="tick" x1="810" y1="294" x2="810" y2="306"/>
  <line class="tick" x1="940" y1="294" x2="940" y2="306"/>
  <text class="axis-num" x="550" y="322" text-anchor="middle">0</text>
  <text class="axis-num" x="680" y="322" text-anchor="middle">100</text>
  <text class="axis-num" x="810" y="322" text-anchor="middle">200</text>
  <text class="axis-num" x="940" y="322" text-anchor="middle">300</text>
  <text class="label" x="745" y="344" text-anchor="middle">min(ts) / max(ts)</text>

  <text class="verdict-bad" x="740" y="383" text-anchor="middle">Ordering: Inexact (overlap)</text>
  <text class="verdict-sub" x="740" y="406" text-anchor="middle">Sort stays</text>
</svg>
