<svg xmlns="http://www.w3.org/2000/svg" viewBox="0 0 820 560">
  <style>
    text { font-family: 'Segoe UI', Arial, sans-serif; }
    .title { font-size: 14px; font-weight: 700; fill: #222; }
    .stage-title { font-size: 13px; font-weight: 700; fill: #222; }
    .step-num { font-size: 13px; font-weight: 700; }
    .node { font-size: 12px; font-weight: 600; fill: #fff; }
    .detail { font-size: 10px; font-family: 'Courier New', monospace; fill: #fff; }
    .small-detail { font-size: 10px; font-family: 'Courier New', monospace; fill: #333; }
    .arrow { fill: none; stroke: #555; stroke-width: 1.6; marker-end: url(#arr); }
    .panel-label { font-size: 11px; font-weight: 600; fill: #888; }
  </style>
  <defs>
    <marker id="arr" viewBox="0 0 10 10" refX="9" refY="5" markerWidth="6" markerHeight="6" orient="auto">
      <path d="M0,0 L10,5 L0,10 Z" fill="#555"/>
    </marker>
  </defs>

  <text class="title" x="410" y="24" text-anchor="middle">Inexact pushdown: two flags drive a three-step runtime pipeline</text>

  <!-- Source state box -->
  <rect x="140" y="46" width="540" height="86" rx="8" fill="#f6f7fa" stroke="#34495e" stroke-width="1.5"/>
  <text class="stage-title" x="410" y="66" text-anchor="middle">ParquetSource carries the inexact-pushdown decision</text>
  <text class="small-detail" x="170" y="88">sort_order_for_reorder = Some([req_col ASC | DESC])</text>
  <text class="small-detail" x="170" y="104">reverse_row_groups     = bool</text>
  <text class="small-detail" x="170" y="124">// set by try_pushdown_sort, read by the opener at scan time</text>

  <line class="arrow" x1="410" y1="136" x2="410" y2="154"/>

  <!-- Step 1: file reorder -->
  <rect x="100" y="156" width="620" height="82" rx="8" fill="#5b8def"/>
  <circle cx="132" cy="197" r="16" fill="#fff"/>
  <text class="step-num" x="132" y="202" text-anchor="middle" fill="#5b8def">1</text>
  <text class="node" x="162" y="184">File-level reorder · shared morsel queue</text>
  <text class="detail" x="162" y="206">FileSource::reorder_files</text>
  <text class="detail" x="162" y="222">→ sort files by min(col); first file picked across all</text>
  <text class="detail" x="162" y="238" fill="#fff">  partitions is globally the most-promising one</text>

  <line class="arrow" x1="410" y1="240" x2="410" y2="258"/>
  <text class="panel-label" x="440" y="256">for each opened file</text>

  <!-- Step 2: RG reorder -->
  <rect x="100" y="260" width="620" height="82" rx="8" fill="#27ae60"/>
  <circle cx="132" cy="301" r="16" fill="#fff"/>
  <text class="step-num" x="132" y="306" text-anchor="middle" fill="#27ae60">2</text>
  <text class="node" x="162" y="288">Row-group-level reorder · per file</text>
  <text class="detail" x="162" y="310">PreparedAccessPlan::reorder_by_statistics</text>
  <text class="detail" x="162" y="326">→ row_group_indexes sorted ASC by min(col)</text>
  <text class="detail" x="162" y="342">  using parquet column statistics</text>

  <line class="arrow" x1="410" y1="344" x2="410" y2="362"/>
  <text class="panel-label" x="440" y="360">if reverse_row_groups</text>

  <!-- Step 3: reverse -->
  <rect x="100" y="364" width="620" height="82" rx="8" fill="#e67e22"/>
  <circle cx="132" cy="405" r="16" fill="#fff"/>
  <text class="step-num" x="132" y="410" text-anchor="middle" fill="#e67e22">3</text>
  <text class="node" x="162" y="392">Reverse iteration · DESC requests</text>
  <text class="detail" x="162" y="414">PreparedAccessPlan::reverse</text>
  <text class="detail" x="162" y="430">→ row_group_indexes.into_iter().rev()</text>

  <line class="arrow" x1="410" y1="448" x2="410" y2="466"/>

  <!-- Decoder + nesting note -->
  <rect x="100" y="468" width="620" height="78" rx="8" fill="#34495e"/>
  <text class="node" x="410" y="490" text-anchor="middle">Decoder reads row groups in this order</text>
  <text class="detail" x="410" y="510" text-anchor="middle">SortExec / TopK above the source still enforces final ordering</text>
  <text class="detail" x="410" y="528" text-anchor="middle">— the stats reorder is approximate, not strict —</text>
</svg>
