<?xml version="1.0" encoding="UTF-8"?>
<!-- Generated by Pixelmator Pro 3.7 -->
<svg width="450" height="300" viewBox="0 0 450 300" xmlns="http://www.w3.org/2000/svg">
    <path id="Path" fill="#ffffff" stroke="none" d="M 0 0 L 450 0 L 450 300 L 0 300 L 0 0 Z"/>
    <text id="23x-" xml:space="preserve"><tspan x="203" y="202" font-family="Helvetica" font-size="18" fill="#4c4c4c" xml:space="preserve">~23x </tspan><tspan font-family="Lucida Grande" font-size="18" fill="#4c4c4c" xml:space="preserve">↓</tspan></text>
    <text id="8x-" xml:space="preserve"><tspan x="359" y="202" font-family="Helvetica" font-size="18" fill="#4c4c4c" xml:space="preserve">~8x </tspan><tspan font-family="Lucida Grande" font-size="18" fill="#4c4c4c" xml:space="preserve">↓</tspan></text>
    <path id="path1" fill="none" stroke="#333333" d="M 74.5 211.5 L 435.5 211.5"/>
    <path id="path2" fill="none" stroke="#d9d9d9" d="M 74.5 172.5 L 435.5 172.5"/>
    <path id="path3" fill="none" stroke="#d9d9d9" d="M 74.5 133.5 L 435.5 133.5"/>
    <path id="path4" fill="none" stroke="#d9d9d9" d="M 74.5 94.5 L 435.5 94.5"/>
    <path id="path5" fill="none" stroke="#d9d9d9" d="M 74.5 56.5 L 435.5 56.5"/>
    <clipPath id="clipPath1">
        <path d="M 74 56 L 435 56 L 435 211 L 74 211 L 74 56 Z"/>
    </clipPath>
    <path id="path6" fill="none" stroke="none" clip-path="url(#clipPath1)" d="M 152 211 L 129 211 L 129 89 C 129 87.895432 129.895432 87 131 87 L 150 87 C 151.104568 87 152 87.895432 152 89 Z"/>
    <clipPath id="clipPath2">
        <path d="M 74 56 L 435 56 L 435 211 L 74 211 L 74 56 Z"/>
    </clipPath>
    <path id="path7" fill="#4285f4" stroke="none" clip-path="url(#clipPath2)" d="M 152 211 L 129 211 L 129 89 C 129 87.895432 129.895432 87 131 87 L 150 87 C 151.104568 87 152 87.895432 152 89 Z"/>
    <clipPath id="clipPath3">
        <path d="M 74 56 L 435 56 L 435 211 L 74 211 L 74 56 Z"/>
    </clipPath>
    <path id="path8" fill="none" stroke="none" clip-path="url(#clipPath3)" d="M 305 211 L 282 211 L 282 193 C 282 191.895432 282.895416 191 284 191 L 303 191 C 304.104584 191 305 191.895432 305 193 Z"/>
    <clipPath id="clipPath4">
        <path d="M 74 56 L 435 56 L 435 211 L 74 211 L 74 56 Z"/>
    </clipPath>
    <path id="path9" fill="#4285f4" stroke="none" clip-path="url(#clipPath4)" d="M 305 211 L 282 211 L 282 193 C 282 191.895432 282.895416 191 284 191 L 303 191 C 304.104584 191 305 191.895432 305 193 Z"/>
    <clipPath id="clipPath5">
        <path d="M 74 56 L 435 56 L 435 211 L 74 211 L 74 56 Z"/>
    </clipPath>
    <path id="path10" fill="none" stroke="none" clip-path="url(#clipPath5)" d="M 177 211 L 154 211 L 154 148 C 154 146.895432 154.895432 146 156 146 L 175 146 C 176.104568 146 177 146.895432 177 148 Z"/>
    <clipPath id="clipPath6">
        <path d="M 74 56 L 435 56 L 435 211 L 74 211 L 74 56 Z"/>
    </clipPath>
    <path id="path11" fill="#ea4335" stroke="none" clip-path="url(#clipPath6)" d="M 177 211 L 154 211 L 154 148 C 154 146.895432 154.895432 146 156 146 L 175 146 C 176.104568 146 177 146.895432 177 148 Z"/>
    <clipPath id="clipPath7">
        <path d="M 74 56 L 435 56 L 435 211 L 74 211 L 74 56 Z"/>
    </clipPath>
    <path id="path12" fill="none" stroke="none" clip-path="url(#clipPath7)" d="M 330 211 L 307 211 L 307 204 C 307 202.895432 307.895416 202 309 202 L 328 202 C 329.104584 202 330 202.895432 330 204 Z"/>
    <clipPath id="clipPath8">
        <path d="M 74 56 L 435 56 L 435 211 L 74 211 L 74 56 Z"/>
    </clipPath>
    <path id="path13" fill="#ea4335" stroke="none" clip-path="url(#clipPath8)" d="M 330 211 L 307 211 L 307 204 C 307 202.895432 307.895416 202 309 202 L 328 202 C 329.104584 202 330 202.895432 330 204 Z"/>
    <clipPath id="clipPath9">
        <path d="M 74 56 L 435 56 L 435 211 L 74 211 L 74 56 Z"/>
    </clipPath>
    <path id="path14" fill="none" stroke="none" clip-path="url(#clipPath9)" d="M 202 211 L 179 211 L 179 142 C 179 140.895432 179.895432 140 181 140 L 200 140 C 201.104568 140 202 140.895432 202 142 Z"/>
    <clipPath id="clipPath10">
        <path d="M 74 56 L 435 56 L 435 211 L 74 211 L 74 56 Z"/>
    </clipPath>
    <path id="path15" fill="#fbbc04" stroke="none" clip-path="url(#clipPath10)" d="M 202 211 L 179 211 L 179 142 C 179 140.895432 179.895432 140 181 140 L 200 140 C 201.104568 140 202 140.895432 202 142 Z"/>
    <clipPath id="clipPath11">
        <path d="M 74 56 L 435 56 L 435 211 L 74 211 L 74 56 Z"/>
    </clipPath>
    <path id="path16" fill="none" stroke="none" clip-path="url(#clipPath11)" d="M 355 211 L 332 211 L 332 193 C 332 191.895432 332.895416 191 334 191 L 353 191 C 354.104584 191 355 191.895432 355 193 Z"/>
    <clipPath id="clipPath12">
        <path d="M 74 56 L 435 56 L 435 211 L 74 211 L 74 56 Z"/>
    </clipPath>
    <path id="path17" fill="#fbbc04" stroke="none" clip-path="url(#clipPath12)" d="M 355 211 L 332 211 L 332 193 C 332 191.895432 332.895416 191 334 191 L 353 191 C 354.104584 191 355 191.895432 355 193 Z"/>
    <clipPath id="clipPath13">
        <path d="M 74 56 L 435 56 L 435 211 L 74 211 L 74 56 Z"/>
    </clipPath>
    <path id="path18" fill="none" stroke="none" clip-path="url(#clipPath13)" d="M 227 211 L 204 211 L 204 207 C 204 205.895432 204.895432 205 206 205 L 225 205 C 226.104568 205 227 205.895432 227 207 Z"/>
    <clipPath id="clipPath14">
        <path d="M 74 56 L 435 56 L 435 211 L 74 211 L 74 56 Z"/>
    </clipPath>
    <path id="path19" fill="#34a853" stroke="none" clip-path="url(#clipPath14)" d="M 227 211 L 204 211 L 204 207 C 204 205.895432 204.895432 205 206 205 L 225 205 C 226.104568 205 227 205.895432 227 207 Z"/>
    <clipPath id="clipPath15">
        <path d="M 74 56 L 435 56 L 435 211 L 74 211 L 74 56 Z"/>
    </clipPath>
    <path id="path20" fill="none" stroke="none" clip-path="url(#clipPath15)" d="M 380 211 L 357 211 L 357 210 C 357 209.447708 357.447723 209 358 209 L 379 209 C 379.552277 209 380 209.447708 380 210 Z"/>
    <clipPath id="clipPath16">
        <path d="M 74 56 L 435 56 L 435 211 L 74 211 L 74 56 Z"/>
    </clipPath>
    <path id="path21" fill="#34a853" stroke="none" clip-path="url(#clipPath16)" d="M 380 211 L 357 211 L 357 210 C 357 209.447708 357.447723 209 358 209 L 379 209 C 379.552277 209 380 209.447708 380 210 Z"/>
    <path id="path22" fill="#000000" stroke="none" d="M 241.073242 245.984375 L 242.198242 246.28125 C 241.958659 247.208333 241.531576 247.916667 240.916992 248.40625 C 240.302409 248.895833 239.547201 249.140625 238.651367 249.140625 C 237.724284 249.140625 236.969076 248.953125 236.385742 248.578125 C 235.802409 248.203125 235.359701 247.661458 235.057617 246.953125 C 234.755534 246.234375 234.604492 245.463542 234.604492 244.640625 C 234.604492 243.744792 234.776367 242.963542 235.120117 242.296875 C 235.463867 241.630208 235.948242 241.125 236.573242 240.78125 C 237.208659 240.4375 237.906576 240.265625 238.666992 240.265625 C 239.521159 240.265625 240.239909 240.484375 240.823242 240.921875 C 241.416992 241.359375 241.828451 241.973958 242.057617 242.765625 L 240.932617 243.03125 C 240.734701 242.40625 240.443034 241.953125 240.057617 241.671875 C 239.682617 241.380208 239.208659 241.234375 238.635742 241.234375 C 237.979492 241.234375 237.427409 241.395833 236.979492 241.71875 C 236.541992 242.03125 236.229492 242.453125 236.041992 242.984375 C 235.864909 243.515625 235.776367 244.067708 235.776367 244.640625 C 235.776367 245.369792 235.880534 246.005208 236.088867 246.546875 C 236.307617 247.088542 236.640951 247.494792 237.088867 247.765625 C 237.536784 248.036458 238.026367 248.171875 238.557617 248.171875 C 239.193034 248.171875 239.729492 247.989583 240.166992 247.625 C 240.614909 247.260417 240.916992 246.713542 241.073242 245.984375 Z M 243.416992 245.890625 C 243.416992 244.734375 243.734701 243.880208 244.370117 243.328125 C 244.901367 242.869792 245.552409 242.640625 246.323242 242.640625 C 247.177409 242.640625 247.875326 242.921875 248.416992 243.484375 C 248.969076 244.036458 249.245117 244.807292 249.245117 245.796875 C 249.245117 246.598958 249.125326 247.229167 248.885742 247.6875 C 248.646159 248.145833 248.291992 248.505208 247.823242 248.765625 C 247.364909 249.015625 246.864909 249.140625 246.323242 249.140625 C 245.458659 249.140625 244.755534 248.864583 244.213867 248.3125 C 243.682617 247.75 243.416992 246.942708 243.416992 245.890625 Z M 244.495117 245.890625 C 244.495117 246.682292 244.666992 247.276042 245.010742 247.671875 C 245.364909 248.067708 245.802409 248.265625 246.323242 248.265625 C 246.854492 248.265625 247.291992 248.067708 247.635742 247.671875 C 247.979492 247.276042 248.151367 246.671875 248.151367 245.859375 C 248.151367 245.088542 247.974284 244.505208 247.620117 244.109375 C 247.276367 243.713542 246.844076 243.515625 246.323242 243.515625 C 245.802409 243.515625 245.364909 243.713542 245.010742 244.109375 C 244.666992 244.494792 244.495117 245.088542 244.495117 245.890625 Z M 250.791992 249 L 250.791992 242.78125 L 251.745117 242.78125 L 251.745117 243.71875 C 251.984701 243.28125 252.203451 242.994792 252.401367 242.859375 C 252.609701 242.713542 252.838867 242.640625 253.088867 242.640625 C 253.443034 242.640625 253.802409 242.75 254.166992 242.96875 L 253.807617 243.953125 C 253.547201 243.796875 253.291992 243.71875 253.041992 243.71875 C 252.802409 243.71875 252.588867 243.791667 252.401367 243.9375 C 252.224284 244.072917 252.099284 244.265625 252.026367 244.515625 C 251.901367 244.890625 251.838867 245.296875 251.838867 245.734375 L 251.838867 249 L 250.791992 249 Z M 259.057617 247 L 260.151367 247.125 C 259.984701 247.760417 259.666992 248.255208 259.198242 248.609375 C 258.729492 248.963542 258.135742 249.140625 257.416992 249.140625 C 256.510742 249.140625 255.786784 248.859375 255.245117 248.296875 C 254.713867 247.734375 254.448242 246.947917 254.448242 245.9375 C 254.448242 244.895833 254.719076 244.088542 255.260742 243.515625 C 255.802409 242.932292 256.500326 242.640625 257.354492 242.640625 C 258.187826 242.640625 258.864909 242.921875 259.385742 243.484375 C 259.916992 244.046875 260.182617 244.84375 260.182617 245.875 C 260.182617 245.9375 260.182617 246.03125 260.182617 246.15625 L 255.541992 246.15625 C 255.583659 246.84375 255.776367 247.369792 256.120117 247.734375 C 256.463867 248.088542 256.896159 248.265625 257.416992 248.265625 C 257.802409 248.265625 258.130534 248.166667 258.401367 247.96875 C 258.682617 247.760417 258.901367 247.4375 259.057617 247 Z M 255.604492 245.296875 L 259.073242 245.296875 C 259.031576 244.765625 258.901367 244.369792 258.682617 244.109375 C 258.338867 243.703125 257.901367 243.5 257.370117 243.5 C 256.880534 243.5 256.469076 243.661458 256.135742 243.984375 C 255.812826 244.307292 255.635742 244.744792 255.604492 245.296875 Z M 261.385742 247.140625 L 262.416992 246.984375 C 262.479492 247.401042 262.640951 247.71875 262.901367 247.9375 C 263.172201 248.15625 263.552409 248.265625 264.041992 248.265625 C 264.521159 248.265625 264.875326 248.171875 265.104492 247.984375 C 265.344076 247.786458 265.463867 247.552083 265.463867 247.28125 C 265.463867 247.041667 265.359701 246.854167 265.151367 246.71875 C 265.005534 246.625 264.646159 246.505208 264.073242 246.359375 C 263.302409 246.161458 262.765951 245.994792 262.463867 245.859375 C 262.172201 245.713542 261.948242 245.515625 261.791992 245.265625 C 261.635742 245.015625 261.557617 244.734375 261.557617 244.421875 C 261.557617 244.151042 261.620117 243.895833 261.745117 243.65625 C 261.870117 243.416667 262.041992 243.21875 262.260742 243.0625 C 262.427409 242.947917 262.651367 242.848958 262.932617 242.765625 C 263.213867 242.682292 263.521159 242.640625 263.854492 242.640625 C 264.333659 242.640625 264.755534 242.713542 265.120117 242.859375 C 265.495117 242.994792 265.771159 243.182292 265.948242 243.421875 C 266.125326 243.661458 266.245117 243.979167 266.307617 244.375 L 265.276367 244.515625 C 265.234701 244.203125 265.099284 243.958333 264.870117 243.78125 C 264.651367 243.59375 264.333659 243.5 263.916992 243.5 C 263.437826 243.5 263.094076 243.583333 262.885742 243.75 C 262.677409 243.90625 262.573242 244.09375 262.573242 244.3125 C 262.573242 244.447917 262.614909 244.567708 262.698242 244.671875 C 262.791992 244.786458 262.927409 244.880208 263.104492 244.953125 C 263.208659 244.994792 263.521159 245.083333 264.041992 245.21875 C 264.791992 245.427083 265.312826 245.59375 265.604492 245.71875 C 265.896159 245.84375 266.125326 246.026042 266.291992 246.265625 C 266.458659 246.505208 266.541992 246.807292 266.541992 247.171875 C 266.541992 247.526042 266.437826 247.859375 266.229492 248.171875 C 266.031576 248.473958 265.739909 248.713542 265.354492 248.890625 C 264.969076 249.057292 264.531576 249.140625 264.041992 249.140625 C 263.229492 249.140625 262.609701 248.973958 262.182617 248.640625 C 261.765951 248.296875 261.500326 247.796875 261.385742 247.140625 Z"/>
    <path id="path23" fill="#000000" stroke="none" d="M 26 159.890625 L 18.421875 159.890625 L 18.421875 162.71875 L 17.40625 162.71875 L 17.40625 155.90625 L 18.421875 155.90625 L 18.421875 158.75 L 26 158.75 L 26 159.890625 Z M 18.625 155.203125 L 17.40625 155.203125 L 17.40625 154.140625 L 18.625 154.140625 L 18.625 155.203125 Z M 26 155.203125 L 19.78125 155.203125 L 19.78125 154.140625 L 26 154.140625 L 26 155.203125 Z M 26 152.203125 L 19.78125 152.203125 L 19.78125 151.265625 L 20.65625 151.265625 C 20.34375 151.067708 20.098958 150.807292 19.921875 150.484375 C 19.734375 150.161458 19.640625 149.791667 19.640625 149.375 C 19.640625 148.916667 19.734375 148.541667 19.921875 148.25 C 20.109375 147.947917 20.375 147.739583 20.71875 147.625 C 20 147.125 19.640625 146.484375 19.640625 145.703125 C 19.640625 145.078125 19.8125 144.604167 20.15625 144.28125 C 20.489583 143.947917 21.015625 143.78125 21.734375 143.78125 L 26 143.78125 L 26 144.828125 L 22.078125 144.828125 C 21.661458 144.828125 21.359375 144.864583 21.171875 144.9375 C 20.984375 145 20.833333 145.119792 20.71875 145.296875 C 20.604167 145.473958 20.546875 145.6875 20.546875 145.9375 C 20.546875 146.375 20.692708 146.739583 20.984375 147.03125 C 21.276042 147.3125 21.744792 147.453125 22.390625 147.453125 L 26 147.453125 L 26 148.515625 L 21.953125 148.515625 C 21.484375 148.515625 21.135417 148.604167 20.90625 148.78125 C 20.666667 148.947917 20.546875 149.223958 20.546875 149.609375 C 20.546875 149.911458 20.625 150.1875 20.78125 150.4375 C 20.9375 150.6875 21.166667 150.869792 21.46875 150.984375 C 21.770833 151.098958 22.203125 151.15625 22.765625 151.15625 L 26 151.15625 L 26 152.203125 Z M 24 136.953125 L 24.125 135.859375 C 24.760417 136.026042 25.255208 136.34375 25.609375 136.8125 C 25.963542 137.28125 26.140625 137.875 26.140625 138.59375 C 26.140625 139.5 25.859375 140.223958 25.296875 140.765625 C 24.734375 141.296875 23.947917 141.5625 22.9375 141.5625 C 21.895833 141.5625 21.088542 141.291667 20.515625 140.75 C 19.932292 140.208333 19.640625 139.510417 19.640625 138.65625 C 19.640625 137.822917 19.921875 137.145833 20.484375 136.625 C 21.046875 136.09375 21.84375 135.828125 22.875 135.828125 C 22.9375 135.828125 23.03125 135.828125 23.15625 135.828125 L 23.15625 140.46875 C 23.84375 140.427083 24.369792 140.234375 24.734375 139.890625 C 25.088542 139.546875 25.265625 139.114583 25.265625 138.59375 C 25.265625 138.208333 25.166667 137.880208 24.96875 137.609375 C 24.760417 137.328125 24.4375 137.109375 24 136.953125 Z M 22.296875 140.40625 L 22.296875 136.9375 C 21.765625 136.979167 21.369792 137.109375 21.109375 137.328125 C 20.703125 137.671875 20.5 138.109375 20.5 138.640625 C 20.5 139.130208 20.661458 139.541667 20.984375 139.875 C 21.307292 140.197917 21.744792 140.375 22.296875 140.40625 Z M 28.53125 129.1875 C 27.791667 129.770833 26.932292 130.265625 25.953125 130.671875 C 24.963542 131.067708 23.942708 131.265625 22.890625 131.265625 C 21.963542 131.265625 21.072917 131.119792 20.21875 130.828125 C 19.229167 130.473958 18.244792 129.927083 17.265625 129.1875 L 17.265625 128.4375 C 18.078125 128.90625 18.65625 129.21875 19 129.375 C 19.541667 129.614583 20.104167 129.802083 20.6875 129.9375 C 21.416667 130.104167 22.151042 130.1875 22.890625 130.1875 C 24.776042 130.1875 26.65625 129.604167 28.53125 128.4375 L 28.53125 129.1875 Z M 24.140625 127.625 L 23.984375 126.59375 C 24.401042 126.53125 24.71875 126.369792 24.9375 126.109375 C 25.15625 125.838542 25.265625 125.458333 25.265625 124.96875 C 25.265625 124.489583 25.171875 124.135417 24.984375 123.90625 C 24.786458 123.666667 24.552083 123.546875 24.28125 123.546875 C 24.041667 123.546875 23.854167 123.651042 23.71875 123.859375 C 23.625 124.005208 23.505208 124.364583 23.359375 124.9375 C 23.161458 125.708333 22.994792 126.244792 22.859375 126.546875 C 22.713542 126.838542 22.515625 127.0625 22.265625 127.21875 C 22.015625 127.375 21.734375 127.453125 21.421875 127.453125 C 21.151042 127.453125 20.895833 127.390625 20.65625 127.265625 C 20.416667 127.140625 20.21875 126.96875 20.0625 126.75 C 19.947917 126.583333 19.848958 126.359375 19.765625 126.078125 C 19.682292 125.796875 19.640625 125.489583 19.640625 125.15625 C 19.640625 124.677083 19.713542 124.255208 19.859375 123.890625 C 19.994792 123.515625 20.182292 123.239583 20.421875 123.0625 C 20.661458 122.885417 20.979167 122.765625 21.375 122.703125 L 21.515625 123.734375 C 21.203125 123.776042 20.958333 123.911458 20.78125 124.140625 C 20.59375 124.359375 20.5 124.677083 20.5 125.09375 C 20.5 125.572917 20.583333 125.916667 20.75 126.125 C 20.90625 126.333333 21.09375 126.4375 21.3125 126.4375 C 21.447917 126.4375 21.567708 126.395833 21.671875 126.3125 C 21.786458 126.21875 21.880208 126.083333 21.953125 125.90625 C 21.994792 125.802083 22.083333 125.489583 22.21875 124.96875 C 22.427083 124.21875 22.59375 123.697917 22.71875 123.40625 C 22.84375 123.114583 23.026042 122.885417 23.265625 122.71875 C 23.505208 122.552083 23.807292 122.46875 24.171875 122.46875 C 24.526042 122.46875 24.859375 122.572917 25.171875 122.78125 C 25.473958 122.979167 25.713542 123.270833 25.890625 123.65625 C 26.057292 124.041667 26.140625 124.479167 26.140625 124.96875 C 26.140625 125.78125 25.973958 126.401042 25.640625 126.828125 C 25.296875 127.244792 24.796875 127.510417 24.140625 127.625 Z M 28.53125 119.515625 L 28.53125 120.265625 C 26.65625 119.098958 24.776042 118.515625 22.890625 118.515625 C 22.161458 118.515625 21.432292 118.598958 20.703125 118.765625 C 20.119792 118.901042 19.557292 119.088542 19.015625 119.328125 C 18.671875 119.484375 18.088542 119.796875 17.265625 120.265625 L 17.265625 119.515625 C 18.244792 118.786458 19.229167 118.244792 20.21875 117.890625 C 21.072917 117.588542 21.963542 117.4375 22.890625 117.4375 C 23.942708 117.4375 24.963542 117.640625 25.953125 118.046875 C 26.932292 118.453125 27.791667 118.942708 28.53125 119.515625 Z"/>
    <path id="path24" fill="#000000" stroke="none" d="M 61.5 210.765625 C 61.5 209.744792 61.604167 208.927083 61.8125 208.3125 C 62.020833 207.6875 62.328125 207.208333 62.734375 206.875 C 63.151042 206.541667 63.671875 206.375 64.296875 206.375 C 64.755208 206.375 65.15625 206.46875 65.5 206.65625 C 65.854167 206.84375 66.145833 207.114583 66.375 207.46875 C 66.604167 207.8125 66.78125 208.234375 66.90625 208.734375 C 67.03125 209.234375 67.09375 209.911458 67.09375 210.765625 C 67.09375 211.776042 66.989583 212.588542 66.78125 213.203125 C 66.583333 213.817708 66.276042 214.296875 65.859375 214.640625 C 65.453125 214.973958 64.932292 215.140625 64.296875 215.140625 C 63.473958 215.140625 62.822917 214.84375 62.34375 214.25 C 61.78125 213.541667 61.5 212.380208 61.5 210.765625 Z M 62.578125 210.765625 C 62.578125 212.171875 62.744792 213.109375 63.078125 213.578125 C 63.411458 214.046875 63.817708 214.28125 64.296875 214.28125 C 64.786458 214.28125 65.192708 214.046875 65.515625 213.578125 C 65.848958 213.109375 66.015625 212.171875 66.015625 210.765625 C 66.015625 209.348958 65.848958 208.411458 65.515625 207.953125 C 65.192708 207.484375 64.78125 207.25 64.28125 207.25 C 63.802083 207.25 63.416667 207.453125 63.125 207.859375 C 62.760417 208.380208 62.578125 209.348958 62.578125 210.765625 Z"/>
    <path id="path25" fill="#000000" stroke="none" d="M 58.46875 176.25 L 57.421875 176.25 L 57.421875 169.53125 C 57.161458 169.770833 56.822917 170.015625 56.40625 170.265625 C 56 170.505208 55.635417 170.682292 55.3125 170.796875 L 55.3125 169.78125 C 55.895833 169.5 56.40625 169.166667 56.84375 168.78125 C 57.291667 168.385417 57.609375 168 57.796875 167.625 L 58.46875 167.625 L 58.46875 176.25 Z M 61.5 172.015625 C 61.5 170.994792 61.604167 170.177083 61.8125 169.5625 C 62.020833 168.9375 62.328125 168.458333 62.734375 168.125 C 63.151042 167.791667 63.671875 167.625 64.296875 167.625 C 64.755208 167.625 65.15625 167.71875 65.5 167.90625 C 65.854167 168.09375 66.145833 168.364583 66.375 168.71875 C 66.604167 169.0625 66.78125 169.484375 66.90625 169.984375 C 67.03125 170.484375 67.09375 171.161458 67.09375 172.015625 C 67.09375 173.026042 66.989583 173.838542 66.78125 174.453125 C 66.583333 175.067708 66.276042 175.546875 65.859375 175.890625 C 65.453125 176.223958 64.932292 176.390625 64.296875 176.390625 C 63.473958 176.390625 62.822917 176.09375 62.34375 175.5 C 61.78125 174.791667 61.5 173.630208 61.5 172.015625 Z M 62.578125 172.015625 C 62.578125 173.421875 62.744792 174.359375 63.078125 174.828125 C 63.411458 175.296875 63.817708 175.53125 64.296875 175.53125 C 64.786458 175.53125 65.192708 175.296875 65.515625 174.828125 C 65.848958 174.359375 66.015625 173.421875 66.015625 172.015625 C 66.015625 170.598958 65.848958 169.661458 65.515625 169.203125 C 65.192708 168.734375 64.78125 168.5 64.28125 168.5 C 63.802083 168.5 63.416667 168.703125 63.125 169.109375 C 62.760417 169.630208 62.578125 170.598958 62.578125 172.015625 Z"/>
    <path id="path26" fill="#000000" stroke="none" d="M 60.046875 136.484375 L 60.046875 137.5 L 54.359375 137.5 C 54.359375 137.25 54.401042 137.005208 54.484375 136.765625 C 54.630208 136.380208 54.859375 136 55.171875 135.625 C 55.494792 135.25 55.958333 134.817708 56.5625 134.328125 C 57.5 133.557292 58.130208 132.947917 58.453125 132.5 C 58.786458 132.052083 58.953125 131.630208 58.953125 131.234375 C 58.953125 130.817708 58.802083 130.46875 58.5 130.1875 C 58.197917 129.895833 57.807292 129.75 57.328125 129.75 C 56.817708 129.75 56.411458 129.901042 56.109375 130.203125 C 55.807292 130.505208 55.651042 130.927083 55.640625 131.46875 L 54.5625 131.359375 C 54.635417 130.546875 54.911458 129.932292 55.390625 129.515625 C 55.880208 129.088542 56.536458 128.875 57.359375 128.875 C 58.182292 128.875 58.833333 129.104167 59.3125 129.5625 C 59.791667 130.020833 60.03125 130.588542 60.03125 131.265625 C 60.03125 131.609375 59.958333 131.947917 59.8125 132.28125 C 59.677083 132.604167 59.442708 132.953125 59.109375 133.328125 C 58.786458 133.692708 58.25 134.192708 57.5 134.828125 C 56.864583 135.359375 56.453125 135.723958 56.265625 135.921875 C 56.088542 136.109375 55.942708 136.296875 55.828125 136.484375 L 60.046875 136.484375 Z M 61.5 133.265625 C 61.5 132.244792 61.604167 131.427083 61.8125 130.8125 C 62.020833 130.1875 62.328125 129.708333 62.734375 129.375 C 63.151042 129.041667 63.671875 128.875 64.296875 128.875 C 64.755208 128.875 65.15625 128.96875 65.5 129.15625 C 65.854167 129.34375 66.145833 129.614583 66.375 129.96875 C 66.604167 130.3125 66.78125 130.734375 66.90625 131.234375 C 67.03125 131.734375 67.09375 132.411458 67.09375 133.265625 C 67.09375 134.276042 66.989583 135.088542 66.78125 135.703125 C 66.583333 136.317708 66.276042 136.796875 65.859375 137.140625 C 65.453125 137.473958 64.932292 137.640625 64.296875 137.640625 C 63.473958 137.640625 62.822917 137.34375 62.34375 136.75 C 61.78125 136.041667 61.5 134.880208 61.5 133.265625 Z M 62.578125 133.265625 C 62.578125 134.671875 62.744792 135.609375 63.078125 136.078125 C 63.411458 136.546875 63.817708 136.78125 64.296875 136.78125 C 64.786458 136.78125 65.192708 136.546875 65.515625 136.078125 C 65.848958 135.609375 66.015625 134.671875 66.015625 133.265625 C 66.015625 131.848958 65.848958 130.911458 65.515625 130.453125 C 65.192708 129.984375 64.78125 129.75 64.28125 129.75 C 63.802083 129.75 63.416667 129.953125 63.125 130.359375 C 62.760417 130.880208 62.578125 131.848958 62.578125 133.265625 Z"/>
    <path id="path27" fill="#000000" stroke="none" d="M 54.5 96.484375 L 55.5625 96.34375 C 55.677083 96.9375 55.880208 97.369792 56.171875 97.640625 C 56.463542 97.901042 56.817708 98.03125 57.234375 98.03125 C 57.734375 98.03125 58.15625 97.859375 58.5 97.515625 C 58.84375 97.171875 59.015625 96.744792 59.015625 96.234375 C 59.015625 95.755208 58.854167 95.359375 58.53125 95.046875 C 58.21875 94.723958 57.817708 94.5625 57.328125 94.5625 C 57.130208 94.5625 56.880208 94.604167 56.578125 94.6875 L 56.703125 93.75 C 56.776042 93.760417 56.833333 93.765625 56.875 93.765625 C 57.322917 93.765625 57.723958 93.651042 58.078125 93.421875 C 58.442708 93.182292 58.625 92.817708 58.625 92.328125 C 58.625 91.942708 58.494792 91.625 58.234375 91.375 C 57.973958 91.114583 57.635417 90.984375 57.21875 90.984375 C 56.8125 90.984375 56.46875 91.114583 56.1875 91.375 C 55.916667 91.635417 55.744792 92.020833 55.671875 92.53125 L 54.609375 92.34375 C 54.734375 91.645833 55.026042 91.104167 55.484375 90.71875 C 55.942708 90.322917 56.510417 90.125 57.1875 90.125 C 57.65625 90.125 58.088542 90.229167 58.484375 90.4375 C 58.880208 90.635417 59.182292 90.90625 59.390625 91.25 C 59.598958 91.59375 59.703125 91.963542 59.703125 92.359375 C 59.703125 92.723958 59.604167 93.0625 59.40625 93.375 C 59.208333 93.677083 58.916667 93.916667 58.53125 94.09375 C 59.03125 94.208333 59.421875 94.453125 59.703125 94.828125 C 59.984375 95.192708 60.125 95.65625 60.125 96.21875 C 60.125 96.96875 59.848958 97.604167 59.296875 98.125 C 58.755208 98.645833 58.067708 98.90625 57.234375 98.90625 C 56.484375 98.90625 55.859375 98.682292 55.359375 98.234375 C 54.859375 97.776042 54.572917 97.192708 54.5 96.484375 Z M 61.5 94.515625 C 61.5 93.494792 61.604167 92.677083 61.8125 92.0625 C 62.020833 91.4375 62.328125 90.958333 62.734375 90.625 C 63.151042 90.291667 63.671875 90.125 64.296875 90.125 C 64.755208 90.125 65.15625 90.21875 65.5 90.40625 C 65.854167 90.59375 66.145833 90.864583 66.375 91.21875 C 66.604167 91.5625 66.78125 91.984375 66.90625 92.484375 C 67.03125 92.984375 67.09375 93.661458 67.09375 94.515625 C 67.09375 95.526042 66.989583 96.338542 66.78125 96.953125 C 66.583333 97.567708 66.276042 98.046875 65.859375 98.390625 C 65.453125 98.723958 64.932292 98.890625 64.296875 98.890625 C 63.473958 98.890625 62.822917 98.59375 62.34375 98 C 61.78125 97.291667 61.5 96.130208 61.5 94.515625 Z M 62.578125 94.515625 C 62.578125 95.921875 62.744792 96.859375 63.078125 97.328125 C 63.411458 97.796875 63.817708 98.03125 64.296875 98.03125 C 64.786458 98.03125 65.192708 97.796875 65.515625 97.328125 C 65.848958 96.859375 66.015625 95.921875 66.015625 94.515625 C 66.015625 93.098958 65.848958 92.161458 65.515625 91.703125 C 65.192708 91.234375 64.78125 91 64.28125 91 C 63.802083 91 63.416667 91.203125 63.125 91.609375 C 62.760417 92.130208 62.578125 93.098958 62.578125 94.515625 Z"/>
    <path id="path28" fill="#000000" stroke="none" d="M 57.875 60 L 57.875 57.9375 L 54.15625 57.9375 L 54.15625 56.96875 L 58.078125 51.40625 L 58.9375 51.40625 L 58.9375 56.96875 L 60.09375 56.96875 L 60.09375 57.9375 L 58.9375 57.9375 L 58.9375 60 L 57.875 60 Z M 57.875 56.96875 L 57.875 53.109375 L 55.1875 56.96875 L 57.875 56.96875 Z M 61.5 55.765625 C 61.5 54.744792 61.604167 53.927083 61.8125 53.3125 C 62.020833 52.6875 62.328125 52.208333 62.734375 51.875 C 63.151042 51.541667 63.671875 51.375 64.296875 51.375 C 64.755208 51.375 65.15625 51.46875 65.5 51.65625 C 65.854167 51.84375 66.145833 52.114583 66.375 52.46875 C 66.604167 52.8125 66.78125 53.234375 66.90625 53.734375 C 67.03125 54.234375 67.09375 54.911458 67.09375 55.765625 C 67.09375 56.776042 66.989583 57.588542 66.78125 58.203125 C 66.583333 58.817708 66.276042 59.296875 65.859375 59.640625 C 65.453125 59.973958 64.932292 60.140625 64.296875 60.140625 C 63.473958 60.140625 62.822917 59.84375 62.34375 59.25 C 61.78125 58.541667 61.5 57.380208 61.5 55.765625 Z M 62.578125 55.765625 C 62.578125 57.171875 62.744792 58.109375 63.078125 58.578125 C 63.411458 59.046875 63.817708 59.28125 64.296875 59.28125 C 64.786458 59.28125 65.192708 59.046875 65.515625 58.578125 C 65.848958 58.109375 66.015625 57.171875 66.015625 55.765625 C 66.015625 54.348958 65.848958 53.411458 65.515625 52.953125 C 65.192708 52.484375 64.78125 52.25 64.28125 52.25 C 63.802083 52.25 63.416667 52.453125 63.125 52.859375 C 62.760417 53.380208 62.578125 54.348958 62.578125 55.765625 Z"/>
    <path id="path29" fill="#000000" stroke="none" d="M 178.660233 228 L 177.613358 228 L 177.613358 221.28125 C 177.352941 221.520833 177.014399 221.765625 176.597733 222.015625 C 176.191483 222.255208 175.826899 222.432292 175.503983 222.546875 L 175.503983 221.53125 C 176.087316 221.25 176.597733 220.916667 177.035233 220.53125 C 177.483149 220.135417 177.800858 219.75 177.988358 219.375 L 178.660233 219.375 L 178.660233 228 Z"/>
    <path id="path30" fill="#000000" stroke="none" d="M 328.777252 228 L 327.730377 228 L 327.730377 221.28125 C 327.469961 221.520833 327.131419 221.765625 326.714752 222.015625 C 326.308502 222.255208 325.943919 222.432292 325.621002 222.546875 L 325.621002 221.53125 C 326.204336 221.25 326.714752 220.916667 327.152252 220.53125 C 327.600169 220.135417 327.917877 219.75 328.105377 219.375 L 328.777252 219.375 L 328.777252 228 Z M 337.355377 226.984375 L 337.355377 228 L 331.667877 228 C 331.667877 227.75 331.709544 227.505208 331.792877 227.265625 C 331.938711 226.880208 332.167877 226.5 332.480377 226.125 C 332.803294 225.75 333.266836 225.317708 333.871002 224.828125 C 334.808502 224.057292 335.438711 223.447917 335.761627 223 C 336.094961 222.552083 336.261627 222.130208 336.261627 221.734375 C 336.261627 221.317708 336.110586 220.96875 335.808502 220.6875 C 335.506419 220.395833 335.115794 220.25 334.636627 220.25 C 334.126211 220.25 333.719961 220.401042 333.417877 220.703125 C 333.115794 221.005208 332.959544 221.427083 332.949127 221.96875 L 331.871002 221.859375 C 331.943919 221.046875 332.219961 220.432292 332.699127 220.015625 C 333.188711 219.588542 333.844961 219.375 334.667877 219.375 C 335.490794 219.375 336.141836 219.604167 336.621002 220.0625 C 337.100169 220.520833 337.339752 221.088542 337.339752 221.765625 C 337.339752 222.109375 337.266836 222.447917 337.121002 222.78125 C 336.985586 223.104167 336.751211 223.453125 336.417877 223.828125 C 336.094961 224.192708 335.558502 224.692708 334.808502 225.328125 C 334.173086 225.859375 333.761627 226.223958 333.574127 226.421875 C 333.397044 226.609375 333.251211 226.796875 333.136627 226.984375 L 337.355377 226.984375 Z"/>
    <path id="path31" fill="#4285f4" stroke="none" d="M 47 273 C 47 272.447723 47.447716 272 48 272 L 58 272 C 58.552284 272 59 272.447723 59 273 L 59 283 C 59 283.552277 58.552284 284 58 284 L 48 284 C 47.447716 284 47 283.552277 47 283 Z"/>
    <path id="path32" fill="#1a1a1a" stroke="none" d="M 68.046875 282 L 68.046875 276.59375 L 67.109375 276.59375 L 67.109375 275.78125 L 68.046875 275.78125 L 68.046875 275.109375 C 68.046875 274.692708 68.083333 274.385417 68.15625 274.1875 C 68.260417 273.90625 68.4375 273.682292 68.6875 273.515625 C 68.947917 273.348958 69.307292 273.265625 69.765625 273.265625 C 70.067708 273.265625 70.395833 273.302083 70.75 273.375 L 70.59375 274.28125 C 70.375 274.25 70.166667 274.234375 69.96875 274.234375 C 69.645833 274.234375 69.416667 274.302083 69.28125 274.4375 C 69.15625 274.572917 69.09375 274.828125 69.09375 275.203125 L 69.09375 275.78125 L 70.3125 275.78125 L 70.3125 276.59375 L 69.09375 276.59375 L 69.09375 282 L 68.046875 282 Z M 74.859375 281.234375 C 74.463542 281.567708 74.083333 281.802083 73.71875 281.9375 C 73.364583 282.072917 72.979167 282.140625 72.5625 282.140625 C 71.875 282.140625 71.348958 281.973958 70.984375 281.640625 C 70.619792 281.307292 70.4375 280.880208 70.4375 280.359375 C 70.4375 280.057292 70.505208 279.78125 70.640625 279.53125 C 70.776042 279.270833 70.958333 279.067708 71.1875 278.921875 C 71.416667 278.765625 71.671875 278.651042 71.953125 278.578125 C 72.151042 278.515625 72.463542 278.458333 72.890625 278.40625 C 73.734375 278.3125 74.359375 278.192708 74.765625 278.046875 C 74.765625 277.901042 74.765625 277.8125 74.765625 277.78125 C 74.765625 277.34375 74.666667 277.036458 74.46875 276.859375 C 74.197917 276.630208 73.796875 276.515625 73.265625 276.515625 C 72.776042 276.515625 72.411458 276.604167 72.171875 276.78125 C 71.932292 276.947917 71.755208 277.25 71.640625 277.6875 L 70.609375 277.546875 C 70.703125 277.109375 70.859375 276.755208 71.078125 276.484375 C 71.296875 276.213542 71.609375 276.005208 72.015625 275.859375 C 72.421875 275.713542 72.890625 275.640625 73.421875 275.640625 C 73.953125 275.640625 74.385417 275.703125 74.71875 275.828125 C 75.052083 275.953125 75.296875 276.109375 75.453125 276.296875 C 75.609375 276.484375 75.71875 276.723958 75.78125 277.015625 C 75.8125 277.192708 75.828125 277.515625 75.828125 277.984375 L 75.828125 279.390625 C 75.828125 280.369792 75.848958 280.989583 75.890625 281.25 C 75.942708 281.510417 76.036458 281.760417 76.171875 282 L 75.0625 282 C 74.958333 281.78125 74.890625 281.526042 74.859375 281.234375 Z M 74.765625 278.875 C 74.380208 279.03125 73.807292 279.166667 73.046875 279.28125 C 72.609375 279.34375 72.302083 279.416667 72.125 279.5 C 71.947917 279.572917 71.807292 279.682292 71.703125 279.828125 C 71.609375 279.973958 71.5625 280.140625 71.5625 280.328125 C 71.5625 280.609375 71.666667 280.84375 71.875 281.03125 C 72.09375 281.21875 72.40625 281.3125 72.8125 281.3125 C 73.21875 281.3125 73.578125 281.223958 73.890625 281.046875 C 74.213542 280.869792 74.447917 280.625 74.59375 280.3125 C 74.708333 280.072917 74.765625 279.723958 74.765625 279.265625 L 74.765625 278.875 Z M 77.765625 282 L 77.765625 273.40625 L 78.828125 273.40625 L 78.828125 282 L 77.765625 282 Z M 80.375 280.140625 L 81.40625 279.984375 C 81.46875 280.401042 81.630208 280.71875 81.890625 280.9375 C 82.161458 281.15625 82.541667 281.265625 83.03125 281.265625 C 83.510417 281.265625 83.864583 281.171875 84.09375 280.984375 C 84.333333 280.786458 84.453125 280.552083 84.453125 280.28125 C 84.453125 280.041667 84.348958 279.854167 84.140625 279.71875 C 83.994792 279.625 83.635417 279.505208 83.0625 279.359375 C 82.291667 279.161458 81.755208 278.994792 81.453125 278.859375 C 81.161458 278.713542 80.9375 278.515625 80.78125 278.265625 C 80.625 278.015625 80.546875 277.734375 80.546875 277.421875 C 80.546875 277.151042 80.609375 276.895833 80.734375 276.65625 C 80.859375 276.416667 81.03125 276.21875 81.25 276.0625 C 81.416667 275.947917 81.640625 275.848958 81.921875 275.765625 C 82.203125 275.682292 82.510417 275.640625 82.84375 275.640625 C 83.322917 275.640625 83.744792 275.713542 84.109375 275.859375 C 84.484375 275.994792 84.760417 276.182292 84.9375 276.421875 C 85.114583 276.661458 85.234375 276.979167 85.296875 277.375 L 84.265625 277.515625 C 84.223958 277.203125 84.088542 276.958333 83.859375 276.78125 C 83.640625 276.59375 83.322917 276.5 82.90625 276.5 C 82.427083 276.5 82.083333 276.583333 81.875 276.75 C 81.666667 276.90625 81.5625 277.09375 81.5625 277.3125 C 81.5625 277.447917 81.604167 277.567708 81.6875 277.671875 C 81.78125 277.786458 81.916667 277.880208 82.09375 277.953125 C 82.197917 277.994792 82.510417 278.083333 83.03125 278.21875 C 83.78125 278.427083 84.302083 278.59375 84.59375 278.71875 C 84.885417 278.84375 85.114583 279.026042 85.28125 279.265625 C 85.447917 279.505208 85.53125 279.807292 85.53125 280.171875 C 85.53125 280.526042 85.427083 280.859375 85.21875 281.171875 C 85.020833 281.473958 84.729167 281.713542 84.34375 281.890625 C 83.958333 282.057292 83.520833 282.140625 83.03125 282.140625 C 82.21875 282.140625 81.598958 281.973958 81.171875 281.640625 C 80.755208 281.296875 80.489583 280.796875 80.375 280.140625 Z M 92.046875 280 L 93.140625 280.125 C 92.973958 280.760417 92.65625 281.255208 92.1875 281.609375 C 91.71875 281.963542 91.125 282.140625 90.40625 282.140625 C 89.5 282.140625 88.776042 281.859375 88.234375 281.296875 C 87.703125 280.734375 87.4375 279.947917 87.4375 278.9375 C 87.4375 277.895833 87.708333 277.088542 88.25 276.515625 C 88.791667 275.932292 89.489583 275.640625 90.34375 275.640625 C 91.177083 275.640625 91.854167 275.921875 92.375 276.484375 C 92.90625 277.046875 93.171875 277.84375 93.171875 278.875 C 93.171875 278.9375 93.171875 279.03125 93.171875 279.15625 L 88.53125 279.15625 C 88.572917 279.84375 88.765625 280.369792 89.109375 280.734375 C 89.453125 281.088542 89.885417 281.265625 90.40625 281.265625 C 90.791667 281.265625 91.119792 281.166667 91.390625 280.96875 C 91.671875 280.760417 91.890625 280.4375 92.046875 280 Z M 88.59375 278.296875 L 92.0625 278.296875 C 92.020833 277.765625 91.890625 277.369792 91.671875 277.109375 C 91.328125 276.703125 90.890625 276.5 90.359375 276.5 C 89.869792 276.5 89.458333 276.661458 89.125 276.984375 C 88.802083 277.307292 88.625 277.744792 88.59375 278.296875 Z M 97 282.140625 L 99.484375 273.265625 L 100.328125 273.265625 L 97.84375 282.140625 L 97 282.140625 Z M 104.046875 282 L 104.046875 276.59375 L 103.109375 276.59375 L 103.109375 275.78125 L 104.046875 275.78125 L 104.046875 275.109375 C 104.046875 274.692708 104.083333 274.385417 104.15625 274.1875 C 104.260417 273.90625 104.4375 273.682292 104.6875 273.515625 C 104.947917 273.348958 105.307292 273.265625 105.765625 273.265625 C 106.067708 273.265625 106.395833 273.302083 106.75 273.375 L 106.59375 274.28125 C 106.375 274.25 106.166667 274.234375 105.96875 274.234375 C 105.645833 274.234375 105.416667 274.302083 105.28125 274.4375 C 105.15625 274.572917 105.09375 274.828125 105.09375 275.203125 L 105.09375 275.78125 L 106.3125 275.78125 L 106.3125 276.59375 L 105.09375 276.59375 L 105.09375 282 L 104.046875 282 Z M 110.859375 281.234375 C 110.463542 281.567708 110.083333 281.802083 109.71875 281.9375 C 109.364583 282.072917 108.979167 282.140625 108.5625 282.140625 C 107.875 282.140625 107.348958 281.973958 106.984375 281.640625 C 106.619792 281.307292 106.4375 280.880208 106.4375 280.359375 C 106.4375 280.057292 106.505208 279.78125 106.640625 279.53125 C 106.776042 279.270833 106.958333 279.067708 107.1875 278.921875 C 107.416667 278.765625 107.671875 278.651042 107.953125 278.578125 C 108.151042 278.515625 108.463542 278.458333 108.890625 278.40625 C 109.734375 278.3125 110.359375 278.192708 110.765625 278.046875 C 110.765625 277.901042 110.765625 277.8125 110.765625 277.78125 C 110.765625 277.34375 110.666667 277.036458 110.46875 276.859375 C 110.197917 276.630208 109.796875 276.515625 109.265625 276.515625 C 108.776042 276.515625 108.411458 276.604167 108.171875 276.78125 C 107.932292 276.947917 107.755208 277.25 107.640625 277.6875 L 106.609375 277.546875 C 106.703125 277.109375 106.859375 276.755208 107.078125 276.484375 C 107.296875 276.213542 107.609375 276.005208 108.015625 275.859375 C 108.421875 275.713542 108.890625 275.640625 109.421875 275.640625 C 109.953125 275.640625 110.385417 275.703125 110.71875 275.828125 C 111.052083 275.953125 111.296875 276.109375 111.453125 276.296875 C 111.609375 276.484375 111.71875 276.723958 111.78125 277.015625 C 111.8125 277.192708 111.828125 277.515625 111.828125 277.984375 L 111.828125 279.390625 C 111.828125 280.369792 111.848958 280.989583 111.890625 281.25 C 111.942708 281.510417 112.036458 281.760417 112.171875 282 L 111.0625 282 C 110.958333 281.78125 110.890625 281.526042 110.859375 281.234375 Z M 110.765625 278.875 C 110.380208 279.03125 109.807292 279.166667 109.046875 279.28125 C 108.609375 279.34375 108.302083 279.416667 108.125 279.5 C 107.947917 279.572917 107.807292 279.682292 107.703125 279.828125 C 107.609375 279.973958 107.5625 280.140625 107.5625 280.328125 C 107.5625 280.609375 107.666667 280.84375 107.875 281.03125 C 108.09375 281.21875 108.40625 281.3125 108.8125 281.3125 C 109.21875 281.3125 109.578125 281.223958 109.890625 281.046875 C 110.213542 280.869792 110.447917 280.625 110.59375 280.3125 C 110.708333 280.072917 110.765625 279.723958 110.765625 279.265625 L 110.765625 278.875 Z M 113.765625 282 L 113.765625 273.40625 L 114.828125 273.40625 L 114.828125 282 L 113.765625 282 Z M 116.375 280.140625 L 117.40625 279.984375 C 117.46875 280.401042 117.630208 280.71875 117.890625 280.9375 C 118.161458 281.15625 118.541667 281.265625 119.03125 281.265625 C 119.510417 281.265625 119.864583 281.171875 120.09375 280.984375 C 120.333333 280.786458 120.453125 280.552083 120.453125 280.28125 C 120.453125 280.041667 120.348958 279.854167 120.140625 279.71875 C 119.994792 279.625 119.635417 279.505208 119.0625 279.359375 C 118.291667 279.161458 117.755208 278.994792 117.453125 278.859375 C 117.161458 278.713542 116.9375 278.515625 116.78125 278.265625 C 116.625 278.015625 116.546875 277.734375 116.546875 277.421875 C 116.546875 277.151042 116.609375 276.895833 116.734375 276.65625 C 116.859375 276.416667 117.03125 276.21875 117.25 276.0625 C 117.416667 275.947917 117.640625 275.848958 117.921875 275.765625 C 118.203125 275.682292 118.510417 275.640625 118.84375 275.640625 C 119.322917 275.640625 119.744792 275.713542 120.109375 275.859375 C 120.484375 275.994792 120.760417 276.182292 120.9375 276.421875 C 121.114583 276.661458 121.234375 276.979167 121.296875 277.375 L 120.265625 277.515625 C 120.223958 277.203125 120.088542 276.958333 119.859375 276.78125 C 119.640625 276.59375 119.322917 276.5 118.90625 276.5 C 118.427083 276.5 118.083333 276.583333 117.875 276.75 C 117.666667 276.90625 117.5625 277.09375 117.5625 277.3125 C 117.5625 277.447917 117.604167 277.567708 117.6875 277.671875 C 117.78125 277.786458 117.916667 277.880208 118.09375 277.953125 C 118.197917 277.994792 118.510417 278.083333 119.03125 278.21875 C 119.78125 278.427083 120.302083 278.59375 120.59375 278.71875 C 120.885417 278.84375 121.114583 279.026042 121.28125 279.265625 C 121.447917 279.505208 121.53125 279.807292 121.53125 280.171875 C 121.53125 280.526042 121.427083 280.859375 121.21875 281.171875 C 121.020833 281.473958 120.729167 281.713542 120.34375 281.890625 C 119.958333 282.057292 119.520833 282.140625 119.03125 282.140625 C 118.21875 282.140625 117.598958 281.973958 117.171875 281.640625 C 116.755208 281.296875 116.489583 280.796875 116.375 280.140625 Z M 128.046875 280 L 129.140625 280.125 C 128.973958 280.760417 128.65625 281.255208 128.1875 281.609375 C 127.71875 281.963542 127.125 282.140625 126.40625 282.140625 C 125.5 282.140625 124.776042 281.859375 124.234375 281.296875 C 123.703125 280.734375 123.4375 279.947917 123.4375 278.9375 C 123.4375 277.895833 123.708333 277.088542 124.25 276.515625 C 124.791667 275.932292 125.489583 275.640625 126.34375 275.640625 C 127.177083 275.640625 127.854167 275.921875 128.375 276.484375 C 128.90625 277.046875 129.171875 277.84375 129.171875 278.875 C 129.171875 278.9375 129.171875 279.03125 129.171875 279.15625 L 124.53125 279.15625 C 124.572917 279.84375 124.765625 280.369792 125.109375 280.734375 C 125.453125 281.088542 125.885417 281.265625 126.40625 281.265625 C 126.791667 281.265625 127.119792 281.166667 127.390625 280.96875 C 127.671875 280.760417 127.890625 280.4375 128.046875 280 Z M 124.59375 278.296875 L 128.0625 278.296875 C 128.020833 277.765625 127.890625 277.369792 127.671875 277.109375 C 127.328125 276.703125 126.890625 276.5 126.359375 276.5 C 125.869792 276.5 125.458333 276.661458 125.125 276.984375 C 124.802083 277.307292 124.625 277.744792 124.59375 278.296875 Z"/>
    <path id="path33" fill="#ea4335" stroke="none" d="M 146 273 C 146 272.447723 146.447708 272 147 272 L 157 272 C 157.552292 272 158 272.447723 158 273 L 158 283 C 158 283.552277 157.552292 284 157 284 L 147 284 C 146.447708 284 146 283.552277 146 283 Z"/>
    <path id="path34" fill="#1a1a1a" stroke="none" d="M 167.046875 282 L 167.046875 276.59375 L 166.109375 276.59375 L 166.109375 275.78125 L 167.046875 275.78125 L 167.046875 275.109375 C 167.046875 274.692708 167.083333 274.385417 167.15625 274.1875 C 167.260417 273.90625 167.4375 273.682292 167.6875 273.515625 C 167.947917 273.348958 168.307292 273.265625 168.765625 273.265625 C 169.067708 273.265625 169.395833 273.302083 169.75 273.375 L 169.59375 274.28125 C 169.375 274.25 169.166667 274.234375 168.96875 274.234375 C 168.645833 274.234375 168.416667 274.302083 168.28125 274.4375 C 168.15625 274.572917 168.09375 274.828125 168.09375 275.203125 L 168.09375 275.78125 L 169.3125 275.78125 L 169.3125 276.59375 L 168.09375 276.59375 L 168.09375 282 L 167.046875 282 Z M 173.859375 281.234375 C 173.463542 281.567708 173.083333 281.802083 172.71875 281.9375 C 172.364583 282.072917 171.979167 282.140625 171.5625 282.140625 C 170.875 282.140625 170.348958 281.973958 169.984375 281.640625 C 169.619792 281.307292 169.4375 280.880208 169.4375 280.359375 C 169.4375 280.057292 169.505208 279.78125 169.640625 279.53125 C 169.776042 279.270833 169.958333 279.067708 170.1875 278.921875 C 170.416667 278.765625 170.671875 278.651042 170.953125 278.578125 C 171.151042 278.515625 171.463542 278.458333 171.890625 278.40625 C 172.734375 278.3125 173.359375 278.192708 173.765625 278.046875 C 173.765625 277.901042 173.765625 277.8125 173.765625 277.78125 C 173.765625 277.34375 173.666667 277.036458 173.46875 276.859375 C 173.197917 276.630208 172.796875 276.515625 172.265625 276.515625 C 171.776042 276.515625 171.411458 276.604167 171.171875 276.78125 C 170.932292 276.947917 170.755208 277.25 170.640625 277.6875 L 169.609375 277.546875 C 169.703125 277.109375 169.859375 276.755208 170.078125 276.484375 C 170.296875 276.213542 170.609375 276.005208 171.015625 275.859375 C 171.421875 275.713542 171.890625 275.640625 172.421875 275.640625 C 172.953125 275.640625 173.385417 275.703125 173.71875 275.828125 C 174.052083 275.953125 174.296875 276.109375 174.453125 276.296875 C 174.609375 276.484375 174.71875 276.723958 174.78125 277.015625 C 174.8125 277.192708 174.828125 277.515625 174.828125 277.984375 L 174.828125 279.390625 C 174.828125 280.369792 174.848958 280.989583 174.890625 281.25 C 174.942708 281.510417 175.036458 281.760417 175.171875 282 L 174.0625 282 C 173.958333 281.78125 173.890625 281.526042 173.859375 281.234375 Z M 173.765625 278.875 C 173.380208 279.03125 172.807292 279.166667 172.046875 279.28125 C 171.609375 279.34375 171.302083 279.416667 171.125 279.5 C 170.947917 279.572917 170.807292 279.682292 170.703125 279.828125 C 170.609375 279.973958 170.5625 280.140625 170.5625 280.328125 C 170.5625 280.609375 170.666667 280.84375 170.875 281.03125 C 171.09375 281.21875 171.40625 281.3125 171.8125 281.3125 C 172.21875 281.3125 172.578125 281.223958 172.890625 281.046875 C 173.213542 280.869792 173.447917 280.625 173.59375 280.3125 C 173.708333 280.072917 173.765625 279.723958 173.765625 279.265625 L 173.765625 278.875 Z M 176.765625 282 L 176.765625 273.40625 L 177.828125 273.40625 L 177.828125 282 L 176.765625 282 Z M 179.375 280.140625 L 180.40625 279.984375 C 180.46875 280.401042 180.630208 280.71875 180.890625 280.9375 C 181.161458 281.15625 181.541667 281.265625 182.03125 281.265625 C 182.510417 281.265625 182.864583 281.171875 183.09375 280.984375 C 183.333333 280.786458 183.453125 280.552083 183.453125 280.28125 C 183.453125 280.041667 183.348958 279.854167 183.140625 279.71875 C 182.994792 279.625 182.635417 279.505208 182.0625 279.359375 C 181.291667 279.161458 180.755208 278.994792 180.453125 278.859375 C 180.161458 278.713542 179.9375 278.515625 179.78125 278.265625 C 179.625 278.015625 179.546875 277.734375 179.546875 277.421875 C 179.546875 277.151042 179.609375 276.895833 179.734375 276.65625 C 179.859375 276.416667 180.03125 276.21875 180.25 276.0625 C 180.416667 275.947917 180.640625 275.848958 180.921875 275.765625 C 181.203125 275.682292 181.510417 275.640625 181.84375 275.640625 C 182.322917 275.640625 182.744792 275.713542 183.109375 275.859375 C 183.484375 275.994792 183.760417 276.182292 183.9375 276.421875 C 184.114583 276.661458 184.234375 276.979167 184.296875 277.375 L 183.265625 277.515625 C 183.223958 277.203125 183.088542 276.958333 182.859375 276.78125 C 182.640625 276.59375 182.322917 276.5 181.90625 276.5 C 181.427083 276.5 181.083333 276.583333 180.875 276.75 C 180.666667 276.90625 180.5625 277.09375 180.5625 277.3125 C 180.5625 277.447917 180.604167 277.567708 180.6875 277.671875 C 180.78125 277.786458 180.916667 277.880208 181.09375 277.953125 C 181.197917 277.994792 181.510417 278.083333 182.03125 278.21875 C 182.78125 278.427083 183.302083 278.59375 183.59375 278.71875 C 183.885417 278.84375 184.114583 279.026042 184.28125 279.265625 C 184.447917 279.505208 184.53125 279.807292 184.53125 280.171875 C 184.53125 280.526042 184.427083 280.859375 184.21875 281.171875 C 184.020833 281.473958 183.729167 281.713542 183.34375 281.890625 C 182.958333 282.057292 182.520833 282.140625 182.03125 282.140625 C 181.21875 282.140625 180.598958 281.973958 180.171875 281.640625 C 179.755208 281.296875 179.489583 280.796875 179.375 280.140625 Z M 191.046875 280 L 192.140625 280.125 C 191.973958 280.760417 191.65625 281.255208 191.1875 281.609375 C 190.71875 281.963542 190.125 282.140625 189.40625 282.140625 C 188.5 282.140625 187.776042 281.859375 187.234375 281.296875 C 186.703125 280.734375 186.4375 279.947917 186.4375 278.9375 C 186.4375 277.895833 186.708333 277.088542 187.25 276.515625 C 187.791667 275.932292 188.489583 275.640625 189.34375 275.640625 C 190.177083 275.640625 190.854167 275.921875 191.375 276.484375 C 191.90625 277.046875 192.171875 277.84375 192.171875 278.875 C 192.171875 278.9375 192.171875 279.03125 192.171875 279.15625 L 187.53125 279.15625 C 187.572917 279.84375 187.765625 280.369792 188.109375 280.734375 C 188.453125 281.088542 188.885417 281.265625 189.40625 281.265625 C 189.791667 281.265625 190.119792 281.166667 190.390625 280.96875 C 190.671875 280.760417 190.890625 280.4375 191.046875 280 Z M 187.59375 278.296875 L 191.0625 278.296875 C 191.020833 277.765625 190.890625 277.369792 190.671875 277.109375 C 190.328125 276.703125 189.890625 276.5 189.359375 276.5 C 188.869792 276.5 188.458333 276.661458 188.125 276.984375 C 187.802083 277.307292 187.625 277.744792 187.59375 278.296875 Z M 196 282.140625 L 198.484375 273.265625 L 199.328125 273.265625 L 196.84375 282.140625 L 196 282.140625 Z M 205.09375 281.0625 L 205.25 281.984375 C 204.947917 282.046875 204.682292 282.078125 204.453125 282.078125 C 204.067708 282.078125 203.770833 282.020833 203.5625 281.90625 C 203.354167 281.78125 203.203125 281.619792 203.109375 281.421875 C 203.026042 281.223958 202.984375 280.807292 202.984375 280.171875 L 202.984375 276.59375 L 202.21875 276.59375 L 202.21875 275.78125 L 202.984375 275.78125 L 202.984375 274.234375 L 204.03125 273.609375 L 204.03125 275.78125 L 205.09375 275.78125 L 205.09375 276.59375 L 204.03125 276.59375 L 204.03125 280.234375 C 204.03125 280.536458 204.046875 280.729167 204.078125 280.8125 C 204.119792 280.895833 204.182292 280.963542 204.265625 281.015625 C 204.348958 281.067708 204.46875 281.09375 204.625 281.09375 C 204.75 281.09375 204.90625 281.083333 205.09375 281.0625 Z M 205.78125 282 L 205.78125 275.78125 L 206.734375 275.78125 L 206.734375 276.71875 C 206.973958 276.28125 207.192708 275.994792 207.390625 275.859375 C 207.598958 275.713542 207.828125 275.640625 208.078125 275.640625 C 208.432292 275.640625 208.791667 275.75 209.15625 275.96875 L 208.796875 276.953125 C 208.536458 276.796875 208.28125 276.71875 208.03125 276.71875 C 207.791667 276.71875 207.578125 276.791667 207.390625 276.9375 C 207.213542 277.072917 207.088542 277.265625 207.015625 277.515625 C 206.890625 277.890625 206.828125 278.296875 206.828125 278.734375 L 206.828125 282 L 205.78125 282 Z M 213.875 282 L 213.875 281.078125 C 213.385417 281.786458 212.723958 282.140625 211.890625 282.140625 C 211.526042 282.140625 211.182292 282.072917 210.859375 281.9375 C 210.546875 281.791667 210.3125 281.614583 210.15625 281.40625 C 210 281.1875 209.890625 280.921875 209.828125 280.609375 C 209.786458 280.411458 209.765625 280.083333 209.765625 279.625 L 209.765625 275.78125 L 210.828125 275.78125 L 210.828125 279.234375 C 210.828125 279.776042 210.848958 280.145833 210.890625 280.34375 C 210.953125 280.614583 211.088542 280.833333 211.296875 281 C 211.515625 281.15625 211.786458 281.234375 212.109375 281.234375 C 212.421875 281.234375 212.713542 281.15625 212.984375 281 C 213.265625 280.833333 213.463542 280.609375 213.578125 280.328125 C 213.703125 280.046875 213.765625 279.640625 213.765625 279.109375 L 213.765625 275.78125 L 214.8125 275.78125 L 214.8125 282 L 213.875 282 Z M 221.046875 280 L 222.140625 280.125 C 221.973958 280.760417 221.65625 281.255208 221.1875 281.609375 C 220.71875 281.963542 220.125 282.140625 219.40625 282.140625 C 218.5 282.140625 217.776042 281.859375 217.234375 281.296875 C 216.703125 280.734375 216.4375 279.947917 216.4375 278.9375 C 216.4375 277.895833 216.708333 277.088542 217.25 276.515625 C 217.791667 275.932292 218.489583 275.640625 219.34375 275.640625 C 220.177083 275.640625 220.854167 275.921875 221.375 276.484375 C 221.90625 277.046875 222.171875 277.84375 222.171875 278.875 C 222.171875 278.9375 222.171875 279.03125 222.171875 279.15625 L 217.53125 279.15625 C 217.572917 279.84375 217.765625 280.369792 218.109375 280.734375 C 218.453125 281.088542 218.885417 281.265625 219.40625 281.265625 C 219.791667 281.265625 220.119792 281.166667 220.390625 280.96875 C 220.671875 280.760417 220.890625 280.4375 221.046875 280 Z M 217.59375 278.296875 L 221.0625 278.296875 C 221.020833 277.765625 220.890625 277.369792 220.671875 277.109375 C 220.328125 276.703125 219.890625 276.5 219.359375 276.5 C 218.869792 276.5 218.458333 276.661458 218.125 276.984375 C 217.802083 277.307292 217.625 277.744792 217.59375 278.296875 Z"/>
    <path id="path35" fill="#fbbc04" stroke="none" d="M 239 273 C 239 272.447723 239.447708 272 240 272 L 250 272 C 250.552292 272 251 272.447723 251 273 L 251 283 C 251 283.552277 250.552292 284 250 284 L 240 284 C 239.447708 284 239 283.552277 239 283 Z"/>
    <path id="path36" fill="#1a1a1a" stroke="none" d="M 262.09375 281.0625 L 262.25 281.984375 C 261.947917 282.046875 261.682292 282.078125 261.453125 282.078125 C 261.067708 282.078125 260.770833 282.020833 260.5625 281.90625 C 260.354167 281.78125 260.203125 281.619792 260.109375 281.421875 C 260.026042 281.223958 259.984375 280.807292 259.984375 280.171875 L 259.984375 276.59375 L 259.21875 276.59375 L 259.21875 275.78125 L 259.984375 275.78125 L 259.984375 274.234375 L 261.03125 273.609375 L 261.03125 275.78125 L 262.09375 275.78125 L 262.09375 276.59375 L 261.03125 276.59375 L 261.03125 280.234375 C 261.03125 280.536458 261.046875 280.729167 261.078125 280.8125 C 261.119792 280.895833 261.182292 280.963542 261.265625 281.015625 C 261.348958 281.067708 261.46875 281.09375 261.625 281.09375 C 261.75 281.09375 261.90625 281.083333 262.09375 281.0625 Z M 262.78125 282 L 262.78125 275.78125 L 263.734375 275.78125 L 263.734375 276.71875 C 263.973958 276.28125 264.192708 275.994792 264.390625 275.859375 C 264.598958 275.713542 264.828125 275.640625 265.078125 275.640625 C 265.432292 275.640625 265.791667 275.75 266.15625 275.96875 L 265.796875 276.953125 C 265.536458 276.796875 265.28125 276.71875 265.03125 276.71875 C 264.791667 276.71875 264.578125 276.791667 264.390625 276.9375 C 264.213542 277.072917 264.088542 277.265625 264.015625 277.515625 C 263.890625 277.890625 263.828125 278.296875 263.828125 278.734375 L 263.828125 282 L 262.78125 282 Z M 270.875 282 L 270.875 281.078125 C 270.385417 281.786458 269.723958 282.140625 268.890625 282.140625 C 268.526042 282.140625 268.182292 282.072917 267.859375 281.9375 C 267.546875 281.791667 267.3125 281.614583 267.15625 281.40625 C 267 281.1875 266.890625 280.921875 266.828125 280.609375 C 266.786458 280.411458 266.765625 280.083333 266.765625 279.625 L 266.765625 275.78125 L 267.828125 275.78125 L 267.828125 279.234375 C 267.828125 279.776042 267.848958 280.145833 267.890625 280.34375 C 267.953125 280.614583 268.088542 280.833333 268.296875 281 C 268.515625 281.15625 268.786458 281.234375 269.109375 281.234375 C 269.421875 281.234375 269.713542 281.15625 269.984375 281 C 270.265625 280.833333 270.463542 280.609375 270.578125 280.328125 C 270.703125 280.046875 270.765625 279.640625 270.765625 279.109375 L 270.765625 275.78125 L 271.8125 275.78125 L 271.8125 282 L 270.875 282 Z M 278.046875 280 L 279.140625 280.125 C 278.973958 280.760417 278.65625 281.255208 278.1875 281.609375 C 277.71875 281.963542 277.125 282.140625 276.40625 282.140625 C 275.5 282.140625 274.776042 281.859375 274.234375 281.296875 C 273.703125 280.734375 273.4375 279.947917 273.4375 278.9375 C 273.4375 277.895833 273.708333 277.088542 274.25 276.515625 C 274.791667 275.932292 275.489583 275.640625 276.34375 275.640625 C 277.177083 275.640625 277.854167 275.921875 278.375 276.484375 C 278.90625 277.046875 279.171875 277.84375 279.171875 278.875 C 279.171875 278.9375 279.171875 279.03125 279.171875 279.15625 L 274.53125 279.15625 C 274.572917 279.84375 274.765625 280.369792 275.109375 280.734375 C 275.453125 281.088542 275.885417 281.265625 276.40625 281.265625 C 276.791667 281.265625 277.119792 281.166667 277.390625 280.96875 C 277.671875 280.760417 277.890625 280.4375 278.046875 280 Z M 274.59375 278.296875 L 278.0625 278.296875 C 278.020833 277.765625 277.890625 277.369792 277.671875 277.109375 C 277.328125 276.703125 276.890625 276.5 276.359375 276.5 C 275.869792 276.5 275.458333 276.661458 275.125 276.984375 C 274.802083 277.307292 274.625 277.744792 274.59375 278.296875 Z M 283 282.140625 L 285.484375 273.265625 L 286.328125 273.265625 L 283.84375 282.140625 L 283 282.140625 Z M 290.046875 282 L 290.046875 276.59375 L 289.109375 276.59375 L 289.109375 275.78125 L 290.046875 275.78125 L 290.046875 275.109375 C 290.046875 274.692708 290.083333 274.385417 290.15625 274.1875 C 290.260417 273.90625 290.4375 273.682292 290.6875 273.515625 C 290.947917 273.348958 291.307292 273.265625 291.765625 273.265625 C 292.067708 273.265625 292.395833 273.302083 292.75 273.375 L 292.59375 274.28125 C 292.375 274.25 292.166667 274.234375 291.96875 274.234375 C 291.645833 274.234375 291.416667 274.302083 291.28125 274.4375 C 291.15625 274.572917 291.09375 274.828125 291.09375 275.203125 L 291.09375 275.78125 L 292.3125 275.78125 L 292.3125 276.59375 L 291.09375 276.59375 L 291.09375 282 L 290.046875 282 Z M 296.859375 281.234375 C 296.463542 281.567708 296.083333 281.802083 295.71875 281.9375 C 295.364583 282.072917 294.979167 282.140625 294.5625 282.140625 C 293.875 282.140625 293.348958 281.973958 292.984375 281.640625 C 292.619792 281.307292 292.4375 280.880208 292.4375 280.359375 C 292.4375 280.057292 292.505208 279.78125 292.640625 279.53125 C 292.776042 279.270833 292.958333 279.067708 293.1875 278.921875 C 293.416667 278.765625 293.671875 278.651042 293.953125 278.578125 C 294.151042 278.515625 294.463542 278.458333 294.890625 278.40625 C 295.734375 278.3125 296.359375 278.192708 296.765625 278.046875 C 296.765625 277.901042 296.765625 277.8125 296.765625 277.78125 C 296.765625 277.34375 296.666667 277.036458 296.46875 276.859375 C 296.197917 276.630208 295.796875 276.515625 295.265625 276.515625 C 294.776042 276.515625 294.411458 276.604167 294.171875 276.78125 C 293.932292 276.947917 293.755208 277.25 293.640625 277.6875 L 292.609375 277.546875 C 292.703125 277.109375 292.859375 276.755208 293.078125 276.484375 C 293.296875 276.213542 293.609375 276.005208 294.015625 275.859375 C 294.421875 275.713542 294.890625 275.640625 295.421875 275.640625 C 295.953125 275.640625 296.385417 275.703125 296.71875 275.828125 C 297.052083 275.953125 297.296875 276.109375 297.453125 276.296875 C 297.609375 276.484375 297.71875 276.723958 297.78125 277.015625 C 297.8125 277.192708 297.828125 277.515625 297.828125 277.984375 L 297.828125 279.390625 C 297.828125 280.369792 297.848958 280.989583 297.890625 281.25 C 297.942708 281.510417 298.036458 281.760417 298.171875 282 L 297.0625 282 C 296.958333 281.78125 296.890625 281.526042 296.859375 281.234375 Z M 296.765625 278.875 C 296.380208 279.03125 295.807292 279.166667 295.046875 279.28125 C 294.609375 279.34375 294.302083 279.416667 294.125 279.5 C 293.947917 279.572917 293.807292 279.682292 293.703125 279.828125 C 293.609375 279.973958 293.5625 280.140625 293.5625 280.328125 C 293.5625 280.609375 293.666667 280.84375 293.875 281.03125 C 294.09375 281.21875 294.40625 281.3125 294.8125 281.3125 C 295.21875 281.3125 295.578125 281.223958 295.890625 281.046875 C 296.213542 280.869792 296.447917 280.625 296.59375 280.3125 C 296.708333 280.072917 296.765625 279.723958 296.765625 279.265625 L 296.765625 278.875 Z M 299.765625 282 L 299.765625 273.40625 L 300.828125 273.40625 L 300.828125 282 L 299.765625 282 Z M 302.375 280.140625 L 303.40625 279.984375 C 303.46875 280.401042 303.630208 280.71875 303.890625 280.9375 C 304.161458 281.15625 304.541667 281.265625 305.03125 281.265625 C 305.510417 281.265625 305.864583 281.171875 306.09375 280.984375 C 306.333333 280.786458 306.453125 280.552083 306.453125 280.28125 C 306.453125 280.041667 306.348958 279.854167 306.140625 279.71875 C 305.994792 279.625 305.635417 279.505208 305.0625 279.359375 C 304.291667 279.161458 303.755208 278.994792 303.453125 278.859375 C 303.161458 278.713542 302.9375 278.515625 302.78125 278.265625 C 302.625 278.015625 302.546875 277.734375 302.546875 277.421875 C 302.546875 277.151042 302.609375 276.895833 302.734375 276.65625 C 302.859375 276.416667 303.03125 276.21875 303.25 276.0625 C 303.416667 275.947917 303.640625 275.848958 303.921875 275.765625 C 304.203125 275.682292 304.510417 275.640625 304.84375 275.640625 C 305.322917 275.640625 305.744792 275.713542 306.109375 275.859375 C 306.484375 275.994792 306.760417 276.182292 306.9375 276.421875 C 307.114583 276.661458 307.234375 276.979167 307.296875 277.375 L 306.265625 277.515625 C 306.223958 277.203125 306.088542 276.958333 305.859375 276.78125 C 305.640625 276.59375 305.322917 276.5 304.90625 276.5 C 304.427083 276.5 304.083333 276.583333 303.875 276.75 C 303.666667 276.90625 303.5625 277.09375 303.5625 277.3125 C 303.5625 277.447917 303.604167 277.567708 303.6875 277.671875 C 303.78125 277.786458 303.916667 277.880208 304.09375 277.953125 C 304.197917 277.994792 304.510417 278.083333 305.03125 278.21875 C 305.78125 278.427083 306.302083 278.59375 306.59375 278.71875 C 306.885417 278.84375 307.114583 279.026042 307.28125 279.265625 C 307.447917 279.505208 307.53125 279.807292 307.53125 280.171875 C 307.53125 280.526042 307.427083 280.859375 307.21875 281.171875 C 307.020833 281.473958 306.729167 281.713542 306.34375 281.890625 C 305.958333 282.057292 305.520833 282.140625 305.03125 282.140625 C 304.21875 282.140625 303.598958 281.973958 303.171875 281.640625 C 302.755208 281.296875 302.489583 280.796875 302.375 280.140625 Z M 314.046875 280 L 315.140625 280.125 C 314.973958 280.760417 314.65625 281.255208 314.1875 281.609375 C 313.71875 281.963542 313.125 282.140625 312.40625 282.140625 C 311.5 282.140625 310.776042 281.859375 310.234375 281.296875 C 309.703125 280.734375 309.4375 279.947917 309.4375 278.9375 C 309.4375 277.895833 309.708333 277.088542 310.25 276.515625 C 310.791667 275.932292 311.489583 275.640625 312.34375 275.640625 C 313.177083 275.640625 313.854167 275.921875 314.375 276.484375 C 314.90625 277.046875 315.171875 277.84375 315.171875 278.875 C 315.171875 278.9375 315.171875 279.03125 315.171875 279.15625 L 310.53125 279.15625 C 310.572917 279.84375 310.765625 280.369792 311.109375 280.734375 C 311.453125 281.088542 311.885417 281.265625 312.40625 281.265625 C 312.791667 281.265625 313.119792 281.166667 313.390625 280.96875 C 313.671875 280.760417 313.890625 280.4375 314.046875 280 Z M 310.59375 278.296875 L 314.0625 278.296875 C 314.020833 277.765625 313.890625 277.369792 313.671875 277.109375 C 313.328125 276.703125 312.890625 276.5 312.359375 276.5 C 311.869792 276.5 311.458333 276.661458 311.125 276.984375 C 310.802083 277.307292 310.625 277.744792 310.59375 278.296875 Z"/>
    <path id="path37" fill="#34a853" stroke="none" d="M 332 273 C 332 272.447723 332.447723 272 333 272 L 343 272 C 343.552277 272 344 272.447723 344 273 L 344 283 C 344 283.552277 343.552277 284 343 284 L 333 284 C 332.447723 284 332 283.552277 332 283 Z"/>
    <path id="path38" fill="#1a1a1a" stroke="none" d="M 355.09375 281.0625 L 355.25 281.984375 C 354.947917 282.046875 354.682292 282.078125 354.453125 282.078125 C 354.067708 282.078125 353.770833 282.020833 353.5625 281.90625 C 353.354167 281.78125 353.203125 281.619792 353.109375 281.421875 C 353.026042 281.223958 352.984375 280.807292 352.984375 280.171875 L 352.984375 276.59375 L 352.21875 276.59375 L 352.21875 275.78125 L 352.984375 275.78125 L 352.984375 274.234375 L 354.03125 273.609375 L 354.03125 275.78125 L 355.09375 275.78125 L 355.09375 276.59375 L 354.03125 276.59375 L 354.03125 280.234375 C 354.03125 280.536458 354.046875 280.729167 354.078125 280.8125 C 354.119792 280.895833 354.182292 280.963542 354.265625 281.015625 C 354.348958 281.067708 354.46875 281.09375 354.625 281.09375 C 354.75 281.09375 354.90625 281.083333 355.09375 281.0625 Z M 355.78125 282 L 355.78125 275.78125 L 356.734375 275.78125 L 356.734375 276.71875 C 356.973958 276.28125 357.192708 275.994792 357.390625 275.859375 C 357.598958 275.713542 357.828125 275.640625 358.078125 275.640625 C 358.432292 275.640625 358.791667 275.75 359.15625 275.96875 L 358.796875 276.953125 C 358.536458 276.796875 358.28125 276.71875 358.03125 276.71875 C 357.791667 276.71875 357.578125 276.791667 357.390625 276.9375 C 357.213542 277.072917 357.088542 277.265625 357.015625 277.515625 C 356.890625 277.890625 356.828125 278.296875 356.828125 278.734375 L 356.828125 282 L 355.78125 282 Z M 363.875 282 L 363.875 281.078125 C 363.385417 281.786458 362.723958 282.140625 361.890625 282.140625 C 361.526042 282.140625 361.182292 282.072917 360.859375 281.9375 C 360.546875 281.791667 360.3125 281.614583 360.15625 281.40625 C 360 281.1875 359.890625 280.921875 359.828125 280.609375 C 359.786458 280.411458 359.765625 280.083333 359.765625 279.625 L 359.765625 275.78125 L 360.828125 275.78125 L 360.828125 279.234375 C 360.828125 279.776042 360.848958 280.145833 360.890625 280.34375 C 360.953125 280.614583 361.088542 280.833333 361.296875 281 C 361.515625 281.15625 361.786458 281.234375 362.109375 281.234375 C 362.421875 281.234375 362.713542 281.15625 362.984375 281 C 363.265625 280.833333 363.463542 280.609375 363.578125 280.328125 C 363.703125 280.046875 363.765625 279.640625 363.765625 279.109375 L 363.765625 275.78125 L 364.8125 275.78125 L 364.8125 282 L 363.875 282 Z M 371.046875 280 L 372.140625 280.125 C 371.973958 280.760417 371.65625 281.255208 371.1875 281.609375 C 370.71875 281.963542 370.125 282.140625 369.40625 282.140625 C 368.5 282.140625 367.776042 281.859375 367.234375 281.296875 C 366.703125 280.734375 366.4375 279.947917 366.4375 278.9375 C 366.4375 277.895833 366.708333 277.088542 367.25 276.515625 C 367.791667 275.932292 368.489583 275.640625 369.34375 275.640625 C 370.177083 275.640625 370.854167 275.921875 371.375 276.484375 C 371.90625 277.046875 372.171875 277.84375 372.171875 278.875 C 372.171875 278.9375 372.171875 279.03125 372.171875 279.15625 L 367.53125 279.15625 C 367.572917 279.84375 367.765625 280.369792 368.109375 280.734375 C 368.453125 281.088542 368.885417 281.265625 369.40625 281.265625 C 369.791667 281.265625 370.119792 281.166667 370.390625 280.96875 C 370.671875 280.760417 370.890625 280.4375 371.046875 280 Z M 367.59375 278.296875 L 371.0625 278.296875 C 371.020833 277.765625 370.890625 277.369792 370.671875 277.109375 C 370.328125 276.703125 369.890625 276.5 369.359375 276.5 C 368.869792 276.5 368.458333 276.661458 368.125 276.984375 C 367.802083 277.307292 367.625 277.744792 367.59375 278.296875 Z M 376 282.140625 L 378.484375 273.265625 L 379.328125 273.265625 L 376.84375 282.140625 L 376 282.140625 Z M 385.09375 281.0625 L 385.25 281.984375 C 384.947917 282.046875 384.682292 282.078125 384.453125 282.078125 C 384.067708 282.078125 383.770833 282.020833 383.5625 281.90625 C 383.354167 281.78125 383.203125 281.619792 383.109375 281.421875 C 383.026042 281.223958 382.984375 280.807292 382.984375 280.171875 L 382.984375 276.59375 L 382.21875 276.59375 L 382.21875 275.78125 L 382.984375 275.78125 L 382.984375 274.234375 L 384.03125 273.609375 L 384.03125 275.78125 L 385.09375 275.78125 L 385.09375 276.59375 L 384.03125 276.59375 L 384.03125 280.234375 C 384.03125 280.536458 384.046875 280.729167 384.078125 280.8125 C 384.119792 280.895833 384.182292 280.963542 384.265625 281.015625 C 384.348958 281.067708 384.46875 281.09375 384.625 281.09375 C 384.75 281.09375 384.90625 281.083333 385.09375 281.0625 Z M 385.78125 282 L 385.78125 275.78125 L 386.734375 275.78125 L 386.734375 276.71875 C 386.973958 276.28125 387.192708 275.994792 387.390625 275.859375 C 387.598958 275.713542 387.828125 275.640625 388.078125 275.640625 C 388.432292 275.640625 388.791667 275.75 389.15625 275.96875 L 388.796875 276.953125 C 388.536458 276.796875 388.28125 276.71875 388.03125 276.71875 C 387.791667 276.71875 387.578125 276.791667 387.390625 276.9375 C 387.213542 277.072917 387.088542 277.265625 387.015625 277.515625 C 386.890625 277.890625 386.828125 278.296875 386.828125 278.734375 L 386.828125 282 L 385.78125 282 Z M 393.875 282 L 393.875 281.078125 C 393.385417 281.786458 392.723958 282.140625 391.890625 282.140625 C 391.526042 282.140625 391.182292 282.072917 390.859375 281.9375 C 390.546875 281.791667 390.3125 281.614583 390.15625 281.40625 C 390 281.1875 389.890625 280.921875 389.828125 280.609375 C 389.786458 280.411458 389.765625 280.083333 389.765625 279.625 L 389.765625 275.78125 L 390.828125 275.78125 L 390.828125 279.234375 C 390.828125 279.776042 390.848958 280.145833 390.890625 280.34375 C 390.953125 280.614583 391.088542 280.833333 391.296875 281 C 391.515625 281.15625 391.786458 281.234375 392.109375 281.234375 C 392.421875 281.234375 392.713542 281.15625 392.984375 281 C 393.265625 280.833333 393.463542 280.609375 393.578125 280.328125 C 393.703125 280.046875 393.765625 279.640625 393.765625 279.109375 L 393.765625 275.78125 L 394.8125 275.78125 L 394.8125 282 L 393.875 282 Z M 401.046875 280 L 402.140625 280.125 C 401.973958 280.760417 401.65625 281.255208 401.1875 281.609375 C 400.71875 281.963542 400.125 282.140625 399.40625 282.140625 C 398.5 282.140625 397.776042 281.859375 397.234375 281.296875 C 396.703125 280.734375 396.4375 279.947917 396.4375 278.9375 C 396.4375 277.895833 396.708333 277.088542 397.25 276.515625 C 397.791667 275.932292 398.489583 275.640625 399.34375 275.640625 C 400.177083 275.640625 400.854167 275.921875 401.375 276.484375 C 401.90625 277.046875 402.171875 277.84375 402.171875 278.875 C 402.171875 278.9375 402.171875 279.03125 402.171875 279.15625 L 397.53125 279.15625 C 397.572917 279.84375 397.765625 280.369792 398.109375 280.734375 C 398.453125 281.088542 398.885417 281.265625 399.40625 281.265625 C 399.791667 281.265625 400.119792 281.166667 400.390625 280.96875 C 400.671875 280.760417 400.890625 280.4375 401.046875 280 Z M 397.59375 278.296875 L 401.0625 278.296875 C 401.020833 277.765625 400.890625 277.369792 400.671875 277.109375 C 400.328125 276.703125 399.890625 276.5 399.359375 276.5 C 398.869792 276.5 398.458333 276.661458 398.125 276.984375 C 397.802083 277.307292 397.625 277.744792 397.59375 278.296875 Z"/>
    <path id="path39" fill="#444746" stroke="none" d="M 16.578125 34 L 16.578125 19.6875 L 26.9375 19.6875 L 26.9375 21.375 L 18.484375 21.375 L 18.484375 25.75 L 26.390625 25.75 L 26.390625 27.4375 L 18.484375 27.4375 L 18.484375 32.3125 L 27.265625 32.3125 L 27.265625 34 L 16.578125 34 Z M 28.140625 34 L 31.9375 28.609375 L 28.4375 23.625 L 30.625 23.625 L 32.21875 26.0625 C 32.520833 26.520833 32.760417 26.90625 32.9375 27.21875 C 33.229167 26.791667 33.494792 26.411458 33.734375 26.078125 L 35.484375 23.625 L 37.578125 23.625 L 34 28.515625 L 37.859375 34 L 35.703125 34 L 33.5625 30.78125 L 33 29.90625 L 30.28125 34 L 28.140625 34 Z M 45.421875 30.65625 L 47.234375 30.890625 C 46.953125 31.942708 46.421875 32.765625 45.640625 33.359375 C 44.869792 33.942708 43.880208 34.234375 42.671875 34.234375 C 41.161458 34.234375 39.958333 33.770833 39.0625 32.84375 C 38.177083 31.90625 37.734375 30.59375 37.734375 28.90625 C 37.734375 27.15625 38.182292 25.802083 39.078125 24.84375 C 39.973958 23.875 41.140625 23.390625 42.578125 23.390625 C 43.963542 23.390625 45.09375 23.864583 45.96875 24.8125 C 46.854167 25.75 47.296875 27.078125 47.296875 28.796875 C 47.296875 28.901042 47.291667 29.057292 47.28125 29.265625 L 39.546875 29.265625 C 39.609375 30.401042 39.932292 31.270833 40.515625 31.875 C 41.098958 32.479167 41.822917 32.78125 42.6875 32.78125 C 43.333333 32.78125 43.880208 32.614583 44.328125 32.28125 C 44.786458 31.9375 45.151042 31.395833 45.421875 30.65625 Z M 39.640625 27.8125 L 45.4375 27.8125 C 45.364583 26.947917 45.145833 26.296875 44.78125 25.859375 C 44.21875 25.182292 43.489583 24.84375 42.59375 24.84375 C 41.791667 24.84375 41.114583 25.114583 40.5625 25.65625 C 40.010417 26.1875 39.703125 26.90625 39.640625 27.8125 Z M 56.09375 30.203125 L 57.8125 30.421875 C 57.625 31.619792 57.140625 32.557292 56.359375 33.234375 C 55.588542 33.901042 54.635417 34.234375 53.5 34.234375 C 52.083333 34.234375 50.942708 33.770833 50.078125 32.84375 C 49.213542 31.916667 48.78125 30.588542 48.78125 28.859375 C 48.78125 27.734375 48.963542 26.755208 49.328125 25.921875 C 49.703125 25.078125 50.270833 24.447917 51.03125 24.03125 C 51.791667 23.604167 52.619792 23.390625 53.515625 23.390625 C 54.640625 23.390625 55.557292 23.677083 56.265625 24.25 C 56.984375 24.822917 57.447917 25.630208 57.65625 26.671875 L 55.9375 26.9375 C 55.78125 26.239583 55.494792 25.71875 55.078125 25.375 C 54.661458 25.020833 54.161458 24.84375 53.578125 24.84375 C 52.692708 24.84375 51.973958 25.161458 51.421875 25.796875 C 50.869792 26.432292 50.59375 27.432292 50.59375 28.796875 C 50.59375 30.192708 50.859375 31.208333 51.390625 31.84375 C 51.921875 32.46875 52.619792 32.78125 53.484375 32.78125 C 54.171875 32.78125 54.744792 32.572917 55.203125 32.15625 C 55.671875 31.729167 55.96875 31.078125 56.09375 30.203125 Z M 66.109375 34 L 66.109375 32.46875 C 65.307292 33.645833 64.213542 34.234375 62.828125 34.234375 C 62.213542 34.234375 61.640625 34.119792 61.109375 33.890625 C 60.578125 33.651042 60.182292 33.354167 59.921875 33 C 59.671875 32.645833 59.494792 32.208333 59.390625 31.6875 C 59.317708 31.34375 59.28125 30.796875 59.28125 30.046875 L 59.28125 23.625 L 61.03125 23.625 L 61.03125 29.375 C 61.03125 30.291667 61.067708 30.911458 61.140625 31.234375 C 61.255208 31.692708 61.489583 32.057292 61.84375 32.328125 C 62.208333 32.588542 62.651042 32.71875 63.171875 32.71875 C 63.703125 32.71875 64.197917 32.583333 64.65625 32.3125 C 65.125 32.041667 65.453125 31.677083 65.640625 31.21875 C 65.838542 30.75 65.9375 30.072917 65.9375 29.1875 L 65.9375 23.625 L 67.6875 23.625 L 67.6875 34 L 66.109375 34 Z M 73.15625 32.421875 L 73.40625 33.984375 C 72.916667 34.088542 72.473958 34.140625 72.078125 34.140625 C 71.442708 34.140625 70.947917 34.041667 70.59375 33.84375 C 70.25 33.635417 70.005208 33.369792 69.859375 33.046875 C 69.713542 32.713542 69.640625 32.020833 69.640625 30.96875 L 69.640625 25 L 68.359375 25 L 68.359375 23.625 L 69.640625 23.625 L 69.640625 21.0625 L 71.390625 20 L 71.390625 23.625 L 73.15625 23.625 L 73.15625 25 L 71.390625 25 L 71.390625 31.0625 C 71.390625 31.5625 71.421875 31.885417 71.484375 32.03125 C 71.546875 32.166667 71.645833 32.28125 71.78125 32.375 C 71.927083 32.458333 72.130208 32.5 72.390625 32.5 C 72.578125 32.5 72.833333 32.473958 73.15625 32.421875 Z M 75.328125 21.703125 L 75.328125 19.6875 L 77.09375 19.6875 L 77.09375 21.703125 L 75.328125 21.703125 Z M 75.328125 34 L 75.328125 23.625 L 77.09375 23.625 L 77.09375 34 L 75.328125 34 Z M 78.671875 28.8125 C 78.671875 26.895833 79.203125 25.473958 80.265625 24.546875 C 81.161458 23.776042 82.25 23.390625 83.53125 23.390625 C 84.958333 23.390625 86.119792 23.859375 87.015625 24.796875 C 87.921875 25.734375 88.375 27.026042 88.375 28.671875 C 88.375 30.005208 88.177083 31.057292 87.78125 31.828125 C 87.385417 32.588542 86.802083 33.182292 86.03125 33.609375 C 85.270833 34.026042 84.4375 34.234375 83.53125 34.234375 C 82.072917 34.234375 80.895833 33.770833 80 32.84375 C 79.114583 31.90625 78.671875 30.5625 78.671875 28.8125 Z M 80.46875 28.8125 C 80.46875 30.145833 80.755208 31.140625 81.328125 31.796875 C 81.911458 32.453125 82.645833 32.78125 83.53125 32.78125 C 84.40625 32.78125 85.130208 32.453125 85.703125 31.796875 C 86.286458 31.130208 86.578125 30.114583 86.578125 28.75 C 86.578125 27.46875 86.286458 26.5 85.703125 25.84375 C 85.119792 25.177083 84.395833 24.84375 83.53125 24.84375 C 82.645833 24.84375 81.911458 25.177083 81.328125 25.84375 C 80.755208 26.5 80.46875 27.489583 80.46875 28.8125 Z M 90.3125 34 L 90.3125 23.625 L 91.90625 23.625 L 91.90625 25.109375 C 92.666667 23.963542 93.765625 23.390625 95.203125 23.390625 C 95.828125 23.390625 96.401042 23.505208 96.921875 23.734375 C 97.453125 23.953125 97.848958 24.244792 98.109375 24.609375 C 98.369792 24.973958 98.552083 25.40625 98.65625 25.90625 C 98.71875 26.239583 98.75 26.8125 98.75 27.625 L 98.75 34 L 96.984375 34 L 96.984375 27.6875 C 96.984375 26.96875 96.916667 26.432292 96.78125 26.078125 C 96.645833 25.723958 96.401042 25.442708 96.046875 25.234375 C 95.703125 25.026042 95.296875 24.921875 94.828125 24.921875 C 94.078125 24.921875 93.432292 25.161458 92.890625 25.640625 C 92.348958 26.109375 92.078125 27.005208 92.078125 28.328125 L 92.078125 34 L 90.3125 34 Z M 110.1875 34 L 110.1875 21.375 L 105.46875 21.375 L 105.46875 19.6875 L 116.8125 19.6875 L 116.8125 21.375 L 112.078125 21.375 L 112.078125 34 L 110.1875 34 Z M 118.328125 21.703125 L 118.328125 19.6875 L 120.09375 19.6875 L 120.09375 21.703125 L 118.328125 21.703125 Z M 118.328125 34 L 118.328125 23.625 L 120.09375 23.625 L 120.09375 34 L 118.328125 34 Z M 122.3125 34 L 122.3125 23.625 L 123.890625 23.625 L 123.890625 25.078125 C 124.213542 24.578125 124.645833 24.171875 125.1875 23.859375 C 125.729167 23.546875 126.34375 23.390625 127.03125 23.390625 C 127.802083 23.390625 128.432292 23.552083 128.921875 23.875 C 129.411458 24.1875 129.760417 24.630208 129.96875 25.203125 C 130.791667 23.994792 131.859375 23.390625 133.171875 23.390625 C 134.203125 23.390625 134.994792 23.677083 135.546875 24.25 C 136.098958 24.822917 136.375 25.697917 136.375 26.875 L 136.375 34 L 134.625 34 L 134.625 27.46875 C 134.625 26.760417 134.567708 26.255208 134.453125 25.953125 C 134.338542 25.640625 134.130208 25.390625 133.828125 25.203125 C 133.536458 25.015625 133.1875 24.921875 132.78125 24.921875 C 132.052083 24.921875 131.442708 25.166667 130.953125 25.65625 C 130.473958 26.135417 130.234375 26.90625 130.234375 27.96875 L 130.234375 34 L 128.484375 34 L 128.484375 27.265625 C 128.484375 26.484375 128.338542 25.901042 128.046875 25.515625 C 127.765625 25.119792 127.296875 24.921875 126.640625 24.921875 C 126.151042 24.921875 125.692708 25.052083 125.265625 25.3125 C 124.848958 25.572917 124.546875 25.953125 124.359375 26.453125 C 124.171875 26.953125 124.078125 27.677083 124.078125 28.625 L 124.078125 34 L 122.3125 34 Z M 145.421875 30.65625 L 147.234375 30.890625 C 146.953125 31.942708 146.421875 32.765625 145.640625 33.359375 C 144.869792 33.942708 143.880208 34.234375 142.671875 34.234375 C 141.161458 34.234375 139.958333 33.770833 139.0625 32.84375 C 138.177083 31.90625 137.734375 30.59375 137.734375 28.90625 C 137.734375 27.15625 138.182292 25.802083 139.078125 24.84375 C 139.973958 23.875 141.140625 23.390625 142.578125 23.390625 C 143.963542 23.390625 145.09375 23.864583 145.96875 24.8125 C 146.854167 25.75 147.296875 27.078125 147.296875 28.796875 C 147.296875 28.901042 147.291667 29.057292 147.28125 29.265625 L 139.546875 29.265625 C 139.609375 30.401042 139.932292 31.270833 140.515625 31.875 C 141.098958 32.479167 141.822917 32.78125 142.6875 32.78125 C 143.333333 32.78125 143.880208 32.614583 144.328125 32.28125 C 144.786458 31.9375 145.151042 31.395833 145.421875 30.65625 Z M 139.640625 27.8125 L 145.4375 27.8125 C 145.364583 26.947917 145.145833 26.296875 144.78125 25.859375 C 144.21875 25.182292 143.489583 24.84375 142.59375 24.84375 C 141.791667 24.84375 141.114583 25.114583 140.5625 25.65625 C 140.010417 26.1875 139.703125 26.90625 139.640625 27.8125 Z M 156.9375 34 L 155.3125 34 L 155.3125 19.6875 L 157.0625 19.6875 L 157.0625 24.796875 C 157.8125 23.859375 158.760417 23.390625 159.90625 23.390625 C 160.541667 23.390625 161.145833 23.520833 161.71875 23.78125 C 162.291667 24.041667 162.760417 24.40625 163.125 24.875 C 163.489583 25.333333 163.776042 25.890625 163.984375 26.546875 C 164.192708 27.203125 164.296875 27.90625 164.296875 28.65625 C 164.296875 30.4375 163.859375 31.8125 162.984375 32.78125 C 162.109375 33.75 161.057292 34.234375 159.828125 34.234375 C 158.598958 34.234375 157.635417 33.723958 156.9375 32.703125 L 156.9375 34 Z M 156.921875 28.734375 C 156.921875 29.973958 157.088542 30.875 157.421875 31.4375 C 157.984375 32.333333 158.734375 32.78125 159.671875 32.78125 C 160.442708 32.78125 161.104167 32.447917 161.65625 31.78125 C 162.21875 31.114583 162.5 30.119792 162.5 28.796875 C 162.5 27.442708 162.229167 26.447917 161.6875 25.8125 C 161.15625 25.166667 160.510417 24.84375 159.75 24.84375 C 158.979167 24.84375 158.3125 25.177083 157.75 25.84375 C 157.197917 26.510417 156.921875 27.473958 156.921875 28.734375 Z M 166.234375 38 L 166.046875 36.34375 C 166.432292 36.447917 166.765625 36.5 167.046875 36.5 C 167.442708 36.5 167.755208 36.432292 167.984375 36.296875 C 168.223958 36.171875 168.416667 35.994792 168.5625 35.765625 C 168.677083 35.588542 168.859375 35.151042 169.109375 34.453125 C 169.140625 34.348958 169.192708 34.203125 169.265625 34.015625 L 165.328125 23.625 L 167.21875 23.625 L 169.375 29.640625 C 169.65625 30.401042 169.90625 31.197917 170.125 32.03125 C 170.333333 31.229167 170.572917 30.442708 170.84375 29.671875 L 173.0625 23.625 L 174.828125 23.625 L 170.875 34.171875 C 170.458333 35.317708 170.130208 36.104167 169.890625 36.53125 C 169.578125 37.114583 169.21875 37.536458 168.8125 37.796875 C 168.416667 38.067708 167.9375 38.203125 167.375 38.203125 C 167.03125 38.203125 166.651042 38.135417 166.234375 38 Z M 182.546875 34 L 182.546875 19.6875 L 187.46875 19.6875 C 188.583333 19.6875 189.4375 19.755208 190.03125 19.890625 C 190.84375 20.078125 191.541667 20.416667 192.125 20.90625 C 192.875 21.552083 193.4375 22.369792 193.8125 23.359375 C 194.1875 24.348958 194.375 25.484375 194.375 26.765625 C 194.375 27.848958 194.25 28.8125 194 29.65625 C 193.75 30.489583 193.421875 31.182292 193.015625 31.734375 C 192.619792 32.286458 192.1875 32.723958 191.71875 33.046875 C 191.25 33.359375 190.682292 33.598958 190.015625 33.765625 C 189.348958 33.921875 188.578125 34 187.703125 34 L 182.546875 34 Z M 184.4375 32.3125 L 187.5 32.3125 C 188.4375 32.3125 189.171875 32.223958 189.703125 32.046875 C 190.244792 31.869792 190.677083 31.619792 191 31.296875 C 191.447917 30.848958 191.796875 30.25 192.046875 29.5 C 192.296875 28.739583 192.421875 27.817708 192.421875 26.734375 C 192.421875 25.234375 192.177083 24.083333 191.6875 23.28125 C 191.197917 22.479167 190.598958 21.942708 189.890625 21.671875 C 189.390625 21.473958 188.578125 21.375 187.453125 21.375 L 184.4375 21.375 L 184.4375 32.3125 Z M 196.640625 34 L 196.640625 19.6875 L 206.296875 19.6875 L 206.296875 21.375 L 198.53125 21.375 L 198.53125 25.8125 L 205.25 25.8125 L 205.25 27.5 L 198.53125 27.5 L 198.53125 34 L 196.640625 34 Z M 213 34.25 L 217.15625 19.4375 L 218.5625 19.4375 L 214.421875 34.25 L 213 34.25 Z M 226.46875 34 L 226.46875 19.6875 L 228.359375 19.6875 L 228.359375 32.3125 L 235.40625 32.3125 L 235.40625 34 L 226.46875 34 Z M 237.484375 34 L 237.484375 19.6875 L 240.34375 19.6875 L 243.71875 29.8125 C 244.03125 30.760417 244.260417 31.46875 244.40625 31.9375 C 244.572917 31.416667 244.828125 30.651042 245.171875 29.640625 L 248.59375 19.6875 L 251.140625 19.6875 L 251.140625 34 L 249.328125 34 L 249.328125 22.015625 L 245.15625 34 L 243.453125 34 L 239.3125 21.8125 L 239.3125 34 L 237.484375 34 Z M 270.765625 28.984375 L 272.65625 29.453125 C 272.260417 31.015625 271.546875 32.208333 270.515625 33.03125 C 269.484375 33.84375 268.21875 34.25 266.71875 34.25 C 265.177083 34.25 263.921875 33.9375 262.953125 33.3125 C 261.994792 32.677083 261.260417 31.765625 260.75 30.578125 C 260.25 29.380208 260 28.098958 260 26.734375 C 260 25.244792 260.28125 23.947917 260.84375 22.84375 C 261.416667 21.729167 262.229167 20.885417 263.28125 20.3125 C 264.333333 19.729167 265.489583 19.4375 266.75 19.4375 C 268.1875 19.4375 269.390625 19.802083 270.359375 20.53125 C 271.338542 21.260417 272.020833 22.286458 272.40625 23.609375 L 270.546875 24.046875 C 270.213542 23.005208 269.729167 22.25 269.09375 21.78125 C 268.46875 21.302083 267.677083 21.0625 266.71875 21.0625 C 265.614583 21.0625 264.692708 21.328125 263.953125 21.859375 C 263.213542 22.380208 262.692708 23.088542 262.390625 23.984375 C 262.098958 24.869792 261.953125 25.78125 261.953125 26.71875 C 261.953125 27.9375 262.130208 29.005208 262.484375 29.921875 C 262.838542 30.828125 263.390625 31.505208 264.140625 31.953125 C 264.890625 32.401042 265.697917 32.625 266.5625 32.625 C 267.625 32.625 268.526042 32.317708 269.265625 31.703125 C 270.005208 31.088542 270.505208 30.182292 270.765625 28.984375 Z M 273.671875 28.8125 C 273.671875 26.895833 274.203125 25.473958 275.265625 24.546875 C 276.161458 23.776042 277.25 23.390625 278.53125 23.390625 C 279.958333 23.390625 281.119792 23.859375 282.015625 24.796875 C 282.921875 25.734375 283.375 27.026042 283.375 28.671875 C 283.375 30.005208 283.177083 31.057292 282.78125 31.828125 C 282.385417 32.588542 281.802083 33.182292 281.03125 33.609375 C 280.270833 34.026042 279.4375 34.234375 278.53125 34.234375 C 277.072917 34.234375 275.895833 33.770833 275 32.84375 C 274.114583 31.90625 273.671875 30.5625 273.671875 28.8125 Z M 275.46875 28.8125 C 275.46875 30.145833 275.755208 31.140625 276.328125 31.796875 C 276.911458 32.453125 277.645833 32.78125 278.53125 32.78125 C 279.40625 32.78125 280.130208 32.453125 280.703125 31.796875 C 281.286458 31.130208 281.578125 30.114583 281.578125 28.75 C 281.578125 27.46875 281.286458 26.5 280.703125 25.84375 C 280.119792 25.177083 279.395833 24.84375 278.53125 24.84375 C 277.645833 24.84375 276.911458 25.177083 276.328125 25.84375 C 275.755208 26.5 275.46875 27.489583 275.46875 28.8125 Z M 285.3125 34 L 285.3125 23.625 L 286.90625 23.625 L 286.90625 25.109375 C 287.666667 23.963542 288.765625 23.390625 290.203125 23.390625 C 290.828125 23.390625 291.401042 23.505208 291.921875 23.734375 C 292.453125 23.953125 292.848958 24.244792 293.109375 24.609375 C 293.369792 24.973958 293.552083 25.40625 293.65625 25.90625 C 293.71875 26.239583 293.75 26.8125 293.75 27.625 L 293.75 34 L 291.984375 34 L 291.984375 27.6875 C 291.984375 26.96875 291.916667 26.432292 291.78125 26.078125 C 291.645833 25.723958 291.401042 25.442708 291.046875 25.234375 C 290.703125 25.026042 290.296875 24.921875 289.828125 24.921875 C 289.078125 24.921875 288.432292 25.161458 287.890625 25.640625 C 287.348958 26.109375 287.078125 27.005208 287.078125 28.328125 L 287.078125 34 L 285.3125 34 Z M 295.734375 34 L 295.734375 25 L 294.1875 25 L 294.1875 23.625 L 295.734375 23.625 L 295.734375 22.53125 C 295.734375 21.833333 295.796875 21.3125 295.921875 20.96875 C 296.088542 20.510417 296.385417 20.140625 296.8125 19.859375 C 297.239583 19.578125 297.838542 19.4375 298.609375 19.4375 C 299.109375 19.4375 299.65625 19.494792 300.25 19.609375 L 299.984375 21.140625 C 299.619792 21.078125 299.276042 21.046875 298.953125 21.046875 C 298.421875 21.046875 298.041667 21.161458 297.8125 21.390625 C 297.59375 21.619792 297.484375 22.046875 297.484375 22.671875 L 297.484375 23.625 L 299.515625 23.625 L 299.515625 25 L 297.484375 25 L 297.484375 34 L 295.734375 34 Z M 301.328125 21.703125 L 301.328125 19.6875 L 303.09375 19.6875 L 303.09375 21.703125 L 301.328125 21.703125 Z M 301.328125 34 L 301.328125 23.625 L 303.09375 23.625 L 303.09375 34 L 301.328125 34 Z M 305 34.859375 L 306.703125 35.109375 C 306.776042 35.640625 306.973958 36.026042 307.296875 36.265625 C 307.734375 36.588542 308.333333 36.75 309.09375 36.75 C 309.90625 36.75 310.53125 36.588542 310.96875 36.265625 C 311.416667 35.942708 311.71875 35.489583 311.875 34.90625 C 311.96875 34.541667 312.010417 33.786458 312 32.640625 C 311.229167 33.546875 310.270833 34 309.125 34 C 307.697917 34 306.59375 33.484375 305.8125 32.453125 C 305.03125 31.421875 304.640625 30.1875 304.640625 28.75 C 304.640625 27.760417 304.817708 26.848958 305.171875 26.015625 C 305.536458 25.182292 306.057292 24.536458 306.734375 24.078125 C 307.421875 23.619792 308.223958 23.390625 309.140625 23.390625 C 310.359375 23.390625 311.369792 23.885417 312.171875 24.875 L 312.171875 23.625 L 313.78125 23.625 L 313.78125 32.59375 C 313.78125 34.208333 313.614583 35.348958 313.28125 36.015625 C 312.958333 36.692708 312.4375 37.223958 311.71875 37.609375 C 311.010417 38.005208 310.135417 38.203125 309.09375 38.203125 C 307.864583 38.203125 306.864583 37.927083 306.09375 37.375 C 305.333333 36.822917 304.96875 35.984375 305 34.859375 Z M 306.453125 28.625 C 306.453125 29.989583 306.723958 30.984375 307.265625 31.609375 C 307.807292 32.234375 308.484375 32.546875 309.296875 32.546875 C 310.098958 32.546875 310.770833 32.234375 311.3125 31.609375 C 311.864583 30.984375 312.140625 30.010417 312.140625 28.6875 C 312.140625 27.416667 311.859375 26.458333 311.296875 25.8125 C 310.734375 25.166667 310.057292 24.84375 309.265625 24.84375 C 308.484375 24.84375 307.817708 25.161458 307.265625 25.796875 C 306.723958 26.432292 306.453125 27.375 306.453125 28.625 Z M 323.109375 34 L 323.109375 32.46875 C 322.307292 33.645833 321.213542 34.234375 319.828125 34.234375 C 319.213542 34.234375 318.640625 34.119792 318.109375 33.890625 C 317.578125 33.651042 317.182292 33.354167 316.921875 33 C 316.671875 32.645833 316.494792 32.208333 316.390625 31.6875 C 316.317708 31.34375 316.28125 30.796875 316.28125 30.046875 L 316.28125 23.625 L 318.03125 23.625 L 318.03125 29.375 C 318.03125 30.291667 318.067708 30.911458 318.140625 31.234375 C 318.255208 31.692708 318.489583 32.057292 318.84375 32.328125 C 319.208333 32.588542 319.651042 32.71875 320.171875 32.71875 C 320.703125 32.71875 321.197917 32.583333 321.65625 32.3125 C 322.125 32.041667 322.453125 31.677083 322.640625 31.21875 C 322.838542 30.75 322.9375 30.072917 322.9375 29.1875 L 322.9375 23.625 L 324.6875 23.625 L 324.6875 34 L 323.109375 34 Z M 326.296875 34 L 326.296875 23.625 L 327.875 23.625 L 327.875 25.203125 C 328.28125 24.463542 328.65625 23.979167 329 23.75 C 329.34375 23.510417 329.71875 23.390625 330.125 23.390625 C 330.71875 23.390625 331.322917 23.578125 331.9375 23.953125 L 331.328125 25.59375 C 330.901042 25.333333 330.473958 25.203125 330.046875 25.203125 C 329.661458 25.203125 329.3125 25.322917 329 25.5625 C 328.697917 25.791667 328.479167 26.109375 328.34375 26.515625 C 328.15625 27.140625 328.0625 27.822917 328.0625 28.5625 L 328.0625 34 L 326.296875 34 Z M 340.09375 32.71875 C 339.4375 33.270833 338.807292 33.661458 338.203125 33.890625 C 337.598958 34.119792 336.953125 34.234375 336.265625 34.234375 C 335.130208 34.234375 334.255208 33.958333 333.640625 33.40625 C 333.026042 32.84375 332.71875 32.130208 332.71875 31.265625 C 332.71875 30.755208 332.833333 30.291667 333.0625 29.875 C 333.302083 29.458333 333.609375 29.125 333.984375 28.875 C 334.359375 28.614583 334.78125 28.416667 335.25 28.28125 C 335.59375 28.197917 336.114583 28.109375 336.8125 28.015625 C 338.229167 27.848958 339.270833 27.651042 339.9375 27.421875 C 339.947917 27.182292 339.953125 27.026042 339.953125 26.953125 C 339.953125 26.244792 339.786458 25.739583 339.453125 25.4375 C 339.005208 25.041667 338.338542 24.84375 337.453125 24.84375 C 336.619792 24.84375 336.005208 24.989583 335.609375 25.28125 C 335.223958 25.572917 334.9375 26.088542 334.75 26.828125 L 333.03125 26.59375 C 333.1875 25.854167 333.442708 25.260417 333.796875 24.8125 C 334.151042 24.354167 334.666667 24.005208 335.34375 23.765625 C 336.020833 23.515625 336.807292 23.390625 337.703125 23.390625 C 338.588542 23.390625 339.307292 23.494792 339.859375 23.703125 C 340.411458 23.911458 340.817708 24.177083 341.078125 24.5 C 341.338542 24.8125 341.520833 25.208333 341.625 25.6875 C 341.6875 25.989583 341.71875 26.53125 341.71875 27.3125 L 341.71875 29.65625 C 341.71875 31.291667 341.755208 32.328125 341.828125 32.765625 C 341.901042 33.192708 342.052083 33.604167 342.28125 34 L 340.4375 34 C 340.260417 33.635417 340.145833 33.208333 340.09375 32.71875 Z M 339.9375 28.796875 C 339.302083 29.057292 338.34375 29.276042 337.0625 29.453125 C 336.34375 29.557292 335.833333 29.677083 335.53125 29.8125 C 335.239583 29.9375 335.010417 30.125 334.84375 30.375 C 334.677083 30.625 334.59375 30.90625 334.59375 31.21875 C 334.59375 31.6875 334.770833 32.078125 335.125 32.390625 C 335.479167 32.703125 336 32.859375 336.6875 32.859375 C 337.364583 32.859375 337.963542 32.713542 338.484375 32.421875 C 339.015625 32.119792 339.40625 31.713542 339.65625 31.203125 C 339.84375 30.796875 339.9375 30.208333 339.9375 29.4375 L 339.9375 28.796875 Z M 348.15625 32.421875 L 348.40625 33.984375 C 347.916667 34.088542 347.473958 34.140625 347.078125 34.140625 C 346.442708 34.140625 345.947917 34.041667 345.59375 33.84375 C 345.25 33.635417 345.005208 33.369792 344.859375 33.046875 C 344.713542 32.713542 344.640625 32.020833 344.640625 30.96875 L 344.640625 25 L 343.359375 25 L 343.359375 23.625 L 344.640625 23.625 L 344.640625 21.0625 L 346.390625 20 L 346.390625 23.625 L 348.15625 23.625 L 348.15625 25 L 346.390625 25 L 346.390625 31.0625 C 346.390625 31.5625 346.421875 31.885417 346.484375 32.03125 C 346.546875 32.166667 346.645833 32.28125 346.78125 32.375 C 346.927083 32.458333 347.130208 32.5 347.390625 32.5 C 347.578125 32.5 347.833333 32.473958 348.15625 32.421875 Z M 350.328125 21.703125 L 350.328125 19.6875 L 352.09375 19.6875 L 352.09375 21.703125 L 350.328125 21.703125 Z M 350.328125 34 L 350.328125 23.625 L 352.09375 23.625 L 352.09375 34 L 350.328125 34 Z M 353.671875 28.8125 C 353.671875 26.895833 354.203125 25.473958 355.265625 24.546875 C 356.161458 23.776042 357.25 23.390625 358.53125 23.390625 C 359.958333 23.390625 361.119792 23.859375 362.015625 24.796875 C 362.921875 25.734375 363.375 27.026042 363.375 28.671875 C 363.375 30.005208 363.177083 31.057292 362.78125 31.828125 C 362.385417 32.588542 361.802083 33.182292 361.03125 33.609375 C 360.270833 34.026042 359.4375 34.234375 358.53125 34.234375 C 357.072917 34.234375 355.895833 33.770833 355 32.84375 C 354.114583 31.90625 353.671875 30.5625 353.671875 28.8125 Z M 355.46875 28.8125 C 355.46875 30.145833 355.755208 31.140625 356.328125 31.796875 C 356.911458 32.453125 357.645833 32.78125 358.53125 32.78125 C 359.40625 32.78125 360.130208 32.453125 360.703125 31.796875 C 361.286458 31.130208 361.578125 30.114583 361.578125 28.75 C 361.578125 27.46875 361.286458 26.5 360.703125 25.84375 C 360.119792 25.177083 359.395833 24.84375 358.53125 24.84375 C 357.645833 24.84375 356.911458 25.177083 356.328125 25.84375 C 355.755208 26.5 355.46875 27.489583 355.46875 28.8125 Z M 365.3125 34 L 365.3125 23.625 L 366.90625 23.625 L 366.90625 25.109375 C 367.666667 23.963542 368.765625 23.390625 370.203125 23.390625 C 370.828125 23.390625 371.401042 23.505208 371.921875 23.734375 C 372.453125 23.953125 372.848958 24.244792 373.109375 24.609375 C 373.369792 24.973958 373.552083 25.40625 373.65625 25.90625 C 373.71875 26.239583 373.75 26.8125 373.75 27.625 L 373.75 34 L 371.984375 34 L 371.984375 27.6875 C 371.984375 26.96875 371.916667 26.432292 371.78125 26.078125 C 371.645833 25.723958 371.401042 25.442708 371.046875 25.234375 C 370.703125 25.026042 370.296875 24.921875 369.828125 24.921875 C 369.078125 24.921875 368.432292 25.161458 367.890625 25.640625 C 367.348958 26.109375 367.078125 27.005208 367.078125 28.328125 L 367.078125 34 L 365.3125 34 Z"/>
</svg>
