<svg xmlns="http://www.w3.org/2000/svg" viewBox="0 0 900 320">
  <defs>
    <marker id="arrow" markerWidth="10" markerHeight="7" refX="10" refY="3.5" orient="auto">
      <polygon points="0 0, 10 3.5, 0 7" fill="#555"/>
    </marker>
  </defs>
  <style>
    text { font-family: 'Segoe UI', Arial, sans-serif; }
    .title { font-size: 15px; font-weight: 700; fill: #222; }
    .stage { fill: #f0f4ff; stroke: #4a7bcc; stroke-width: 1.5; rx: 8; }
    .highlight { fill: #fff3e0; stroke: #e67e22; stroke-width: 2; rx: 8; }
    .label { font-size: 12px; fill: #333; text-anchor: middle; font-weight: 600; }
    .sublabel { font-size: 10px; fill: #777; text-anchor: middle; }
  </style>

  <!-- Before -->
  <text class="title" x="225" y="28" text-anchor="middle">Before</text>
  <line x1="40" y1="38" x2="410" y2="38" stroke="#ddd" stroke-width="1"/>

  <rect class="highlight" x="150" y="55" width="150" height="42"/>
  <text class="label" x="225" y="80">FilterExec</text>
  <text class="sublabel" x="225" y="112">k = 1</text>

  <line x1="225" y1="97" x2="225" y2="128" stroke="#555" stroke-width="1.5" marker-end="url(#arrow)"/>

  <rect class="stage" x="150" y="132" width="150" height="42"/>
  <text class="label" x="225" y="157">HashJoinExec</text>

  <line x1="188" y1="174" x2="125" y2="220" stroke="#555" stroke-width="1.5" marker-end="url(#arrow)"/>
  <line x1="262" y1="174" x2="325" y2="220" stroke="#555" stroke-width="1.5" marker-end="url(#arrow)"/>

  <rect class="stage" x="55" y="224" width="140" height="42"/>
  <text class="label" x="125" y="249">DataSourceExec</text>
  <text class="sublabel" x="125" y="281">t1</text>

  <rect class="stage" x="255" y="224" width="140" height="42"/>
  <text class="label" x="325" y="249">DataSourceExec</text>
  <text class="sublabel" x="325" y="281">t2</text>

  <!-- After -->
  <text class="title" x="675" y="28" text-anchor="middle">After</text>
  <line x1="490" y1="38" x2="860" y2="38" stroke="#ddd" stroke-width="1"/>

  <rect class="stage" x="600" y="55" width="150" height="42"/>
  <text class="label" x="675" y="80">HashJoinExec</text>

  <line x1="638" y1="97" x2="585" y2="136" stroke="#555" stroke-width="1.5" marker-end="url(#arrow)"/>
  <line x1="712" y1="97" x2="765" y2="136" stroke="#555" stroke-width="1.5" marker-end="url(#arrow)"/>

  <rect class="highlight" x="510" y="140" width="150" height="42"/>
  <text class="label" x="585" y="165">FilterExec</text>
  <text class="sublabel" x="585" y="197">k = 1</text>

  <rect class="highlight" x="690" y="140" width="150" height="42"/>
  <text class="label" x="765" y="165">FilterExec</text>
  <text class="sublabel" x="765" y="197">k = 1</text>

  <line x1="585" y1="182" x2="585" y2="217" stroke="#555" stroke-width="1.5" marker-end="url(#arrow)"/>
  <line x1="765" y1="182" x2="765" y2="217" stroke="#555" stroke-width="1.5" marker-end="url(#arrow)"/>

  <rect class="stage" x="510" y="221" width="150" height="42"/>
  <text class="label" x="585" y="246">DataSourceExec</text>
  <text class="sublabel" x="585" y="278">t1</text>

  <rect class="stage" x="690" y="221" width="150" height="42"/>
  <text class="label" x="765" y="246">DataSourceExec</text>
  <text class="sublabel" x="765" y="278">t2</text>
</svg>
