<svg xmlns="http://www.w3.org/2000/svg" viewBox="0 0 980 340">
  <defs>
    <marker id="arrow" markerWidth="10" markerHeight="7" refX="10" refY="3.5" orient="auto">
      <polygon points="0 0, 10 3.5, 0 7" fill="#555"/>
    </marker>
  </defs>
  <style>
    text { font-family: 'Segoe UI', Arial, sans-serif; }
    .title { font-size: 18px; font-weight: 700; fill: #222; }
    .stage { fill: #f0f4ff; stroke: #4a7bcc; stroke-width: 1.5; rx: 8; }
    .highlight { fill: #fff3e0; stroke: #e67e22; stroke-width: 2; rx: 8; }
    .label { font-size: 15px; fill: #333; text-anchor: middle; font-weight: 600; }
    .sublabel { font-size: 15px; fill: #555; text-anchor: middle; }
    .tiny { font-size: 12px; fill: #777; text-anchor: middle; }
  </style>

  <!-- Before -->
  <text class="title" x="245" y="28" text-anchor="middle">Before</text>
  <line x1="40" y1="38" x2="450" y2="38" stroke="#ddd" stroke-width="1"/>

  <rect class="highlight" x="145" y="55" width="200" height="56"/>
  <text class="label" x="245" y="79">ProjectionExec</text>
  <text class="sublabel" x="245" y="99">s['label']</text>

  <line x1="245" y1="111" x2="245" y2="132" stroke="#555" stroke-width="1.5" marker-end="url(#arrow)"/>

  <rect class="highlight" x="130" y="136" width="230" height="56"/>
  <text class="label" x="245" y="160">FilterExec</text>
  <text class="sublabel" x="245" y="180">s['value'] &gt; 150</text>

  <line x1="245" y1="192" x2="245" y2="213" stroke="#555" stroke-width="1.5" marker-end="url(#arrow)"/>

  <rect class="stage" x="115" y="217" width="260" height="72"/>
  <text class="label" x="245" y="241">DataSourceExec</text>
  <text class="sublabel" x="245" y="261">projection=[id, s]</text>
  <text class="tiny" x="245" y="280">reads full struct column</text>

  <!-- After -->
  <text class="title" x="735" y="28" text-anchor="middle">After</text>
  <line x1="530" y1="38" x2="940" y2="38" stroke="#ddd" stroke-width="1"/>

  <rect class="stage" x="655" y="55" width="160" height="56"/>
  <text class="label" x="735" y="79">ProjectionExec</text>
  <text class="sublabel" x="735" y="99">__label</text>

  <line x1="735" y1="111" x2="735" y2="132" stroke="#555" stroke-width="1.5" marker-end="url(#arrow)"/>

  <rect class="stage" x="645" y="136" width="180" height="56"/>
  <text class="label" x="735" y="160">FilterExec</text>
  <text class="sublabel" x="735" y="180">__value &gt; 150</text>

  <line x1="735" y1="192" x2="735" y2="213" stroke="#555" stroke-width="1.5" marker-end="url(#arrow)"/>

  <rect class="highlight" x="560" y="217" width="350" height="72"/>
  <text class="label" x="735" y="241">DataSourceExec</text>
  <text class="sublabel" x="735" y="261">projection=[id, s['label'], s['value']]</text>
  <text class="tiny" x="735" y="280">field access extracted near the scan</text>
</svg>
